<svg xmlns="http://www.w3.org/2000/svg" version="1.1" width="600px" height="600px" viewBox="0 0 200 200" style="overflow:hidden!important;"><g id="svga-group-wrapper"><g id="svga-group-backs-single"><path id="SvgjsPath11236" d="M0 0h200v200H0V0z" fill="#ffffff" stroke-width="none" opacity="1" stroke="none"></path><path id="SvgjsPath11237" d="m156.3 131.2-16.8-.4-17 .6c-.7 0-8.8-.3-9.4-.2-9.8 1.2-14.9.6-20.8 0l-10.9-.1c-1.5 0-3.5-1.6-3.5-3.6l.1-5.6c1-5.5-.2-9.4-.2-14.7l.2-3.6c0-1.5 2.3-2.3 5.1-2.4l7.5.2c3.7-.1 9.6.8 12 .3l11-.5c3.8-.2 10.8-.8 20.5-.5 0 0 10.3 0 19.3.2l5.6-.1c1.5 0 3.2 1.2 3.2 2.7v5c-.1 3.3.1 5.9.1 10.1l.2 5.5-.4 3.4c-.1 2.5-3.8 4.1-5.8 3.7zm-43.4-33.4-16.8-.4-17 .6c-.7 0-8.8-.3-9.4-.2-9.8 1.2-14.9.6-20.8 0L38 97.7c-1.5 0-3.5-1.6-3.5-3.6v-5.6c1-5.5-.2-9.4-.2-14.7l.2-3.6c0-1.5 2.3-2.3 5.1-2.4l7.5.2c3.7-.1 9.6.8 12 .3l11-.5c3.8-.2 10.8-.8 20.5-.5 0 0 10.3 0 19.3.2l5.6-.1c1.5 0 3.2 1.2 3.2 2.7v5c-.1 3.3.1 5.9.1 10.1l.2 5.5-.4 3.4c0 2.5-3.6 4.1-5.7 3.7zm43.4-32.4-16.8-.4-17 .6c-.7 0-8.8-.3-9.4-.2-9.8 1.2-14.9.6-20.8 0l-10.9-.1c-1.5 0-3.5-1.6-3.5-3.6l.1-5.6c1-5.5-.2-9.4-.2-14.7l.2-3.6c0-1.5 2.3-2.3 5.1-2.4l7.5.2c3.7-.1 9.6.8 12 .3l11-.5c3.8-.2 10.8-.8 20.5-.5 0 0 10.3 0 19.3.2l5.6-.1c1.5 0 3.2 1.2 3.2 2.7v5c-.1 3.3.1 5.9.1 10.1l.2 5.5-.3 3.4c-.2 2.5-3.9 4.1-5.9 3.7zm-43.4-33.3-16.8-.4-17 .6c-.7 0-8.8-.3-9.4-.2-9.8 1.2-14.9.6-20.8 0L38 32c-1.5 0-3.5-1.6-3.5-3.6v-5.6c1-5.5-.2-9.4-.2-14.7l.2-3.6c0-1.5 2.3-2.3 5.1-2.4l7.5.2c3.7-.1 9.6.8 12 .3l11-.5c3.8-.2 10.8-.8 20.5-.5 0 0 10.3 0 19.3.2l5.6-.1c1.5 0 3.2 1.2 3.2 2.7v5c-.1 3.3.1 5.9.1 10.1l.2 5.5-.4 3.4c0 2.5-3.6 4-5.7 3.7zm43.4 166.2-16.8-.4-17 .6c-.7 0-8.8-.3-9.4-.2-9.8 1.2-14.9.6-20.8 0l-10.9-.1c-1.5 0-3.5-1.6-3.5-3.6l.1-5.6c1-5.5-.2-9.4-.2-14.7l.2-3.6c0-1.5 2.3-2.3 5.1-2.4l7.5.2c3.7-.1 9.6.8 12 .3l11-.5c3.8-.2 10.8-.8 20.5-.5 0 0 10.3 0 19.3.2l5.6-.1c1.5 0 3.2 1.2 3.2 2.7v5c-.1 3.3.1 5.9.1 10.1l.2 5.5-.4 3.4c-.1 2.5-3.8 4.1-5.8 3.7zM112.9 165l-16.8-.4-17 .6c-.7 0-8.8-.3-9.4-.2-9.8 1.2-14.9.6-20.8 0l-10.9-.1c-1.5 0-3.5-1.6-3.5-3.6v-5.6c1-5.5-.2-9.4-.2-14.7l.2-3.6c0-1.5 2.3-2.3 5.1-2.4l7.5.2c3.7-.1 9.6.8 12 .3l11-.4c3.8-.2 10.8-.8 20.5-.5 0 0 10.3 0 19.3.2l5.6-.1c1.5 0 3.2 1.2 3.2 2.7v5c-.1 3.3.1 5.9.1 10.1l.2 5.5-.4 3.4c0 2.4-3.6 4-5.7 3.6zM25.7 97.8c2.1.4 5.7-1.2 5.7-3.7l.4-3.4-.2-5.5c.1-4.2-.1-6.8-.1-10.1v-5c0-1.5-1.8-2.7-3.2-2.7l-5.6.1c-9-.2-19.3-.2-19.3-.2H.1v30.5l8.8-.3 16.8.3zm5.8 39.5c0-1.5-1.8-2.7-3.2-2.7l-5.6.1c-9-.2-19.3-.2-19.3-.2-1.2 0-2.2-.1-3.3-.1v30.5l8.8-.3 16.8.4c2.1.4 5.7-1.2 5.7-3.7l.4-3.4-.2-5.5c.1-4.2-.1-6.8-.1-10.1v-5zM14.9 35.9c-2.4.4-8.3-.4-12-.3L0 35.5v29.9l4.6.1c5.9.6 11 1.2 20.8 0 .7-.1 8.8.2 9.5.2l17-.6 16.8.4c2.1.4 5.7-1.2 5.7-3.7l.4-3.4-.2-5.5c.1-4.2-.1-6.8-.1-10.1v-5c0-1.5-1.8-2.7-3.2-2.7l-5.6.1c-9-.2-19.3-.2-19.3-.2-9.7-.3-16.7.3-20.5.5l-11 .4zm59.6 72.6v-5c0-1.5-1.8-2.7-3.2-2.7l-5.6.1c-9-.2-19.3-.2-19.3-.2-9.7-.3-16.7.3-20.5.5l-11 .5c-2.4.4-8.3-.4-12-.3l-2.9-.1v29.9l4.6.1c5.9.6 11 1.2 20.8 0 .7-.1 8.8.2 9.5.2l17-.6 16.8.4c2.1.4 5.7-1.2 5.7-3.7l.4-3.4-.2-5.5c0-4.2-.2-6.8-.1-10.2zm0 67.2v-5c0-1.5-1.8-2.7-3.2-2.7l-5.6.1c-9-.2-19.3-.2-19.3-.2-9.7-.3-16.7.3-20.5.5l-11 .5c-2.4.4-8.3-.4-12-.3l-2.9-.2v29.9l4.6.1c5.9.6 11 1.2 20.8 0 .7-.1 8.8.2 9.5.2l17-.6 16.8.4c2.1.4 5.7-1.2 5.7-3.7l.4-3.4-.2-5.5c0-4.2-.2-6.8-.1-10.1zM0 32l8.8-.3 16.8.4c2.1.4 5.7-1.2 5.7-3.7l.4-3.4-.2-5.5c.1-4.2-.1-6.8-.1-10.1v-5c0-1.5-1.8-2.7-3.2-2.7l-5.6.1c-9-.2-19.3-.2-19.3-.2-1.1 0-2.2-.1-3.3-.1V32zm169.4 33.3 10.9.1c5.7.6 10.4.6 19.7-.5V35.4l-9-.4c-2.4.4-7.8-.1-11.5 0l-8.4.4c-2.8 0-5.1.9-5.1 2.4l-.2 3.6c0 5.3-1 10.2.2 14.7l-.1 5.6c0 2 2 3.6 3.5 3.6zm0 65.8 10.9.1c5.7.6 10.4.5 19.7-.6v-29.5l-9.1-.4c-2.4.4-7.8-.1-11.5 0l-8.4.4c-2.8.1-5.1.9-5.1 2.4l-.2 3.6c0 5.3-1 10.2.2 14.7l-.1 5.6c.1 2 2.1 3.7 3.6 3.7zM122.1 22.7l-.1 5.6c0 2 2 3.6 3.5 3.6l10.9.1c5.9.6 11 1.2 20.8 0 .7-.1 8.8.2 9.4.2l17-.6 16.4.4V1.8h-2.6c-9-.2-19.3-.2-19.3-.2-9.7-.3-16.7.3-20.5.5l-11 .5c-2.4.4-8.3-.4-12-.3l-7.5-.3c-2.8 0-5.1.9-5.1 2.4l-.1 3.6c0 5.4 1.2 9.2.2 14.7zm0 65.8-.1 5.6c0 2 2 3.6 3.5 3.6l10.9.1c5.9.6 11 1.2 20.8 0 .7-.1 8.8.2 9.4.2l17-.6 16.4.3V67.5l-2.6.1c-9-.2-19.3-.2-19.3-.2-9.7-.3-16.7.3-20.5.5l-11 .5c-2.4.4-8.3-.4-12-.3l-7.5-.2c-2.8.1-5.1.9-5.1 2.4l-.2 3.6c.1 5.2 1.3 9.1.3 14.6zm77.9 79.8-9.1-.4c-2.4.4-7.8-.1-11.5 0l-8.4.4c-2.8.1-5.1.9-5.1 2.4l-.2 3.6c0 5.3-1 10.2.2 14.7l-.1 5.6c0 2 2 3.6 3.5 3.6l10.9.1c5.7.6 10.4.5 19.7-.6l.1-29.4zm-16.4-3.7 16.4.4v-30.3l-2.6.1c-9-.2-19.3-.2-19.3-.2-9.7-.3-16.7.3-20.5.5l-11 .5c-2.4.4-8.3-.4-12-.3l-7.5-.2c-2.8.1-5.1.9-5.1 2.4l-.2 3.6c0 5.3 1.2 9.2.2 14.7l-.1 5.6c0 2 2 3.6 3.5 3.6l10.9.1c5.9.6 11 1.2 20.8 0 .7-.1 8.8.2 9.4.2l17.1-.7z" fill="#f0f0f0" stroke-width="none" opacity="1" stroke="none"></path><path id="SvgjsPath11238" d="M34.5 22.7v5.6c0 2 2 3.6 3.5 3.6l10.9.1c5.9.6 11 1.2 20.8 0 .7-.1 8.8.2 9.4.2l17-.6 16.8.4c1.3.2 3.3-.3 4.5-1.4-.8 0-1.7-.3-2.6-.3-1.4 0-6.2-1.1-9.3-1.6-1.3-1.2-2.9-2-4.7-1.7-1.3.2-2.3.8-3.8 1-2.1.3-4.2-.1-6.3-.5-2.2-.4-4.2-.8-6.4-.8-.1 0-.1.1 0 .1 4.1.2 7.9 1.8 11.9 1.9 1.4 0 2.7-.5 4-.5.9 0 1.6.1 2.3.3-6.4 0-22.2.9-24.5 1.6-2.7.7-12.6.7-15.9-.7-3.4-1.5-20.3 0-21.7-.2-1.5-.2-1.7-2.7-1-7 .2-1.2.2-2.6.1-4.2.5.2.9.3 1.4.3 1.4 0 3-.9 4.2-1.5 2.2-1.1 4.4-2.2 6.5-3.5.1-.1 0-.2-.1-.2-2.5 1.3-5 2.4-7.7 3.2-1.3.4-2.7 1.1-4.1.5-.1 0-.2-.1-.3-.1-.3-4.1-1.2-8.7-1.5-10.9-.1-.7-.1-1.4 0-2 3.9-1.4 8.2 1 12.1 1.5 3.2.4 6.3.1 9.5-.4.2 0 .1-.3 0-.3-2.5.2-5 .4-7.6.1-2.7-.3-5.2-1.3-7.8-1.8-2-.4-3.9-.7-5.7 0 .1-.3.2-.6.3-.8-2.4.2-4.2 1-4.2 2.3L34.3 8c0 5.4 1.2 9.2.2 14.7zm71.2 39.6c-1.9-1-8.3.3-10.8 1-2.3.6-8.8-.6-11.6-1.8 2.3-.1 4.6-.5 6.4-1.7.1-.1.1-.4-.1-.4-2.6.3-4.9 1.1-7.5 1.3-1.5-1.7-1.2-7.2-.9-9.9.3-2.9-1.3-7.3-1.6-10.5-.2-1.8-.1-3.3.1-4.4-1.1.4-1.8 1-1.8 1.8l-.2 3.6c0 5.3 1.2 9.2.2 14.7l-.1 5.6c0 2 2 3.6 3.5 3.6l10.9.1c5.9.6 11 1.2 20.8 0 .7-.1 8.8.2 9.4.2l17-.6 16.8.4c1.5.3 3.8-.5 5-1.9h-.5c-2.2 0-3.5-1-5.4-1.6-.6-.2-2.2-.1-4.1.2-1.7-1.6-4.1-2.3-6.4-2-1.9.2-3.5 1.3-5.4 1.4-2 0-3.4-.7-5.4-.3-.1 0-.1.2 0 .2 2.5 0 4.9 1 7.3.4 3.4-.8 5.6-.9 8.6.4-3.7.6-8.1 1.4-9.6 1.2-2.6-.3-4.1.3-7 .3s-19.8-.3-22-.6c-2.1-.1-3.7.2-5.6-.7zm-1.2 33c-.4-.1-1.3-.1-2.5-.2.1-.5-.1-1.1-.5-1.4-.5-.4-1.6-.7-1.9.1-.1.2 0 .5.3.5s.7-.1 1-.1c.4.1.6.5.5.9-7.1-.1-22.9.5-25.5.5-3.1 0-16.7-.3-24.6.6s-12.5-2.3-13-3.4c-.1-.2-.2-.4-.2-.8 1.4-.4 2.9-.3 4.4-.2 2.1.1 4.2-.5 6.2-.3.8.1 1.4.6 2.2.4 1-.2 2-1.2 2.7-1.8 0 0 0-.1-.1-.1-1.3 1.1-1.8 1.5-3.4 1.2-.3-.1-.5-.5-.8-.5-2.2-.3-4.4.2-6.7-.1-1.7-.2-3.3-.3-4.7.2-.2-2.1-.2-5.2-.2-7.2 0-.4 0-.9-.1-1.4 2.9.4 5.8-2.4 8.7-2 .1 0 .1-.1 0-.2-1.7-.5-3.3.1-4.8.6 0-.1-.1-.2-.2-.2-1.4-.1-2.7 0-4-.3-.4-2.6-1.1-5.6-1.1-7.7 0-1.7-.6-2.8-1.3-3.5-.3.3-.5.7-.5 1.1l-.2 3.6c0 5.3 1.2 9.2.2 14.7v5.6c0 2 2 3.6 3.5 3.6l10.9.1c5.9.6 11 1.2 20.8 0 .7-.1 8.8.2 9.4.2l17-.6 16.8.4c1.6.3 4.1-.6 5.2-2.1-1.1.3-2.7.7-3.7.7-1.5.2-7.2-.4-9.8-.9zm13.8 34.8c-4.4-.3-7.3-.3-10.8-3.2-.1-.1-.3-.2-.4-.3 1-.2 2.1-.2 3.2.1 1 .3 1.9.8 3 .9 2.8.3 5.6-.5 8-1.7.4-.2.1-.8-.3-.7-1.8.4-3.5 1-5.4 1.2-2.2.3-3.5-.5-5.4-1.1.6.1 1.1.3 1.7.5.2.1.6-.2.3-.4-2.6-2.4-7.8-.6-10.8.1-5.4-.1-12.3 1.2-13.9 1.6-2.3.6-3.5.3-6.7-1.2s-.6-4.1 0-9.4c.1-.6.1-1 .1-1.4 3 2.9 7.2 4 11.3 3.1 2-.5 3.4-1.4 5.6-1.4 1.9 0 3.6.8 5.4 1.3 2.5.8 4.3 1.2 6.9.7.1 0 .1-.2 0-.2-4.6.5-8.4-2.5-12.9-2.6-1.8 0-3.4.7-5.2 1-4.2.8-7.8-.6-11-3.1-.1-2.4-1-2.3-1.9-5.1-.5-1.4-.9-2.9-1.2-4.2l-.1 2.4c0 5.3 1.2 9.2.2 14.7l-.1 5.6c0 2 2 3.6 3.5 3.6l10.9.1c5.9.6 11 1.2 20.8 0 .7-.1 8.8.2 9.4.2l17-.6 16.8.4c1.1.2 2.6-.2 3.8-.9-2-1.1-5.4-2.9-7.8-3.5-3.5-.9-6.7.6-11.4.9-4.7.5-18.2 2.9-22.6 2.6zm-14.1-4.4c1.1-.2 2.1-.4 3.2-.5-.6.2-1.1.5-1.7.8l-1.5-.3zm12.9 38.2c-.7-.1-1.4-.1-2-.1-1.5 0-3.5 0-6.5-.6-3.1-.6-9.4-.9-13.3-1.1s-16.3 1.5-18.5 1.3-6.1-.9-11.3-1.5c-5.2-.6-17.4.9-19.6 1.3-1.4.3-4-.3-5.8-1.7 1.2.1 2.4.1 3.6 0 .3 0 .4-.4.1-.5-1.4-.5-3.1-.5-4.6-.4-.4-.5-.7-1.1-.9-1.8-.6-3-.1-4.5 0-7.8 1.7 1.6 4.2 1.6 6.8 1.5 3.5-.1 5.9 1.2 8.9 2.3 2.9 1.1 5.7-.4 8.6.6.2.1.3-.3.1-.4-1.2-.4-1.6-.4-2.9-.4-2 0-3.6.6-5.6-.4-1.1-.5-2-1.6-3.1-2.2-3.8-1.9-10.2 1.4-12.9-2.9-.2-3.5-1.1-6.1-1.9-9.1-.4-1.6-.7-3.1-.6-4.3-.7.4-1.2.9-1.2 1.6l-.2 3.6c0 5.3 1.2 9.2.2 14.7v5.6c0 2 2 3.6 3.5 3.6l10.9.1c5.9.6 11 1.2 20.8 0 .7-.1 8.8.2 9.4.2l17-.6 16.8.4c1.2.3 2.9-.1 4.2-1zm39 32.9c-2.3-.2-9.7.5-14.4 0s-11.7-1.3-16.4-1.6-17.8.7-17.8.7-2.5-.4-6.5-.9-17.1.7-18.9-2c-1.1-1.6-.9-3-.6-4.7l1.2.6c1.1.4 2.2.4 3.3.5 1.7.2 3.2.7 4.8 1.2.2.1.4-.3.2-.4-1.3-1-2.5-1.5-4.2-1.8-1.7-.3-3.8-.2-5.2-1.2.2-.9.3-1.8.4-3 .1-1.1 0-2.1-.2-3.2.8.1 1.7.3 2.5.2.3 0 .3-.4.1-.5-.8-.2-1.8-.3-2.7-.4-.5-2.6-1.4-5.2-2.2-8.4-.3-1.3-.5-2.2-.6-2.9-.7.4-1.2.9-1.2 1.6l-.2 3.6c0 5.3 1.2 9.2.2 14.7l-.1 5.6c0 2 2 3.6 3.5 3.6l10.9.1c5.9.6 11 1.2 20.8 0 .7-.1 8.8.2 9.4.2l17-.6 16.8.4c1.4.2 3.6-.4 4.8-1.6-1.1 0-3 .4-4.7.2zm42.1-166.6c-1.7-1-7.7-.2-11.1 0s-16.7-.2-18.8 0-11.1-.7-14-1.2c-2.9-.5-14.2.2-17.6.7s-10.3-.7-10.5-2.7c-.2-1.9-.2-3.6.2-7.7.1-.5.1-1 .1-1.4.9.6 2.5.5 3.3.4 1-.1 1.9-.4 2.9-.6 3.3-.7 5.1-.1 8.2.6 5.6 1.4 11.2 1.5 17 1 .1 0 .1-.2 0-.2-6.5.2-12.2-.1-18.5-2.1-4.5-1.4-8.4.5-12.9-.4-.2-2.6-.9-4.5-1.3-7.2-.3-2.6 0-5.4.6-7.3-2.2.2-3.8 1-3.8 2.3l-.1 3.6c0 5.3 1.2 9.2.2 14.7l-.1 5.6c0 2 2 3.6 3.5 3.6l10.9.1c5.9.6 11 1.2 20.8 0 .7-.1 8.8.2 9.4.2l17-.6 16.4.3v-1.3c-.6.1-1.3-.1-1.8-.4zm-10.6 32.1c-1.9-.8-9.5-.2-13.2-.5.5-.1.9-.2 1.4-.3 1.2-.3 2.7-.7 3.5-1.6.1-.2.1-.5-.2-.5-1.2.1-2.2.8-3.3 1-1.3.3-2.6.4-3.8.7-1.7-.9-2.7-2.9-3.8-5.6-.9-2.1-.3-3.4.1-5 1.8-.1 3.7.6 5.5.5 2.7 0 5.2-.6 7.8.5.1 0 .1-.1.1-.1-2.4-1.3-4.8-.8-7.4-1-2.1-.1-3.9-.9-5.8-.8.1-.6.1-1.2.1-1.9-.3-3.2-1-8.6-.3-10.5.2-.6.2-1.2 0-1.7-1.4.4-2.3 1.1-2.3 2l-.2 3.6c0 5.3-1 10.2.2 14.7l-.1 5.6c0 2 2 3.6 3.5 3.6l10.9.1c5.7.9 10.4.9 19.7-.2v-2.8c-1.7 0-2.6.9-4.1 1.1-2 .3-6.1 0-8.3-.9zm7.6 32.4c0-.8-21.2.3-24.4 0s-4.5-.3-6.5-.8-26.9.8-30.6 1.4-7.7-1.4-8.5-3.1c-.8-1.5.3-5.4.3-8.7.3.2.6.4.9.5.6.2 1.3.3 2 .2 1.8-.2 3.4-1.3 5.2-1.4.1 0 .2-.2 0-.2-1.8-.2-3.4.3-5.1.6-1.2.2-2-.4-3-.8v-.1c-.3-3.4-1.1-7.1-2-9.9-.4-1.3-.7-2.4-1.1-3.2-.2.3-.4.6-.4 1l-.2 3.6c0 5.3 1.2 9.2.2 14.7l-.1 5.6c0 2 2 3.6 3.5 3.6l10.9.1c5.9.6 11 1.2 20.8 0 .7-.1 8.8.2 9.4.2l17-.6 16.3.3V96h-.3c-1.8.4-4.3-.4-4.3-1.3zm.2 32.3c-.8-.5-2.1-.2-2.7.5-.2.2-.1.3.1.4-6.8.5-14.9 1.5-16.2 1.3-2.1-.3-6.4-2.9-6.4-6.4v-.6c1.1.2 2.2.8 3.2.9.6.1 1.2.1 1.8-.1 1-.3 2-1.4 3.3-.8.2.1.4-.1.3-.3-1.1-1.9-3.4.1-4.9.1-1.4.1-2.6-.5-3.9-.6-.4-2.2-1.8-2.7-2.8-5.7-1.2-3.5.3-5 .3-9.1 0-2.2-.5-3.4-1.1-4.2-.3.3-.6.7-.6 1.1l-.2 3.6c0 5.3-1 10.2.2 14.7l-.1 5.6c0 2 2 3.6 3.5 3.6l10.9.1c5.7.6 10.4.5 19.7-.6v-3.1c-1 0-2.4 0-3.9.1 0-.1-.2-.3-.5-.5zm-2.1.9c.5-.1.9-.4 1.4-.4.2 0 .4.1.6.2-.7.1-1.3.1-2 .2zm-9.2 34.7c-.6-.2-2.6-.3-5-.4 0-.8 0-1.5-.1-2.2 0-.1-.2-.3-.3-.3-2.5-.5-5.9 0-7.9 1.6-.2.1 0 .4.2.3 1.5-.4 2.9-1 4.4-1.2.6-.1 1.5-.2 2.1 0 .5-.1.8.1 1 .7.1.4.1.7.2 1.1-5.7-.2-13.9-.1-15.4.2-.4.1-1.3.2-2.4.2-.8-.1-1.7-.1-2.4.1h-.1c-4.5.2-10.5.4-11.7.2-1.7-.2-2.6-.9-6.1-1.7s-12 .4-13.9 0-1.5-2.8-1.5-5.9c0-2.2.4-3.3.9-5 .6.5 1.4.8 2.1.9s1.7 0 2.5-.4c.4.1.8.2 1.2.2 1.9.1 3.9-.4 5.8-.3 2.7.1 5.3.6 8 .9.3 0 .4-.5.1-.5-3.3-1-6.8-1.7-10.2-1.5-2.8.1-3.9.7-6.7-1.1-.7-.4-1.3-1-2-1.5.2-2.9-1.5-4.5-2.1-6.6-.5-1.8-1.1-3.2-.8-5-1.1.4-1.9 1-1.9 1.9l-.2 3.6c0 5.3 1.2 9.2.2 14.7l-.1 5.6c0 2 2 3.6 3.5 3.6l10.9.1c5.9.6 11 1.2 20.8 0 .7-.1 8.8.2 9.4.2l17-.6 16.4.5v-1c-.7-.1-1.3-.3-1.8-.5-1.7-.9-12-.2-14.1-.9zm-57.5-14.4c.9.9 2 1.9 3.1 2.4-.5.1-1-.1-1.5-.2-.8-.2-1.3-.6-1.9-1.1.1-.2.2-.6.3-1.1zm66.4 47c-.7-.1-1.5-.1-2.2-.3-.9-.2-1.7-.6-2.4-1.2-.3-.3-.8.2-.5.5.2.2.5.4.8.6-3.2 0-6.9 1.2-9.5 1.3-1.5.1-3.3-.5-4.8-1.5.3-.1.6-.1.8-.2.3-.1.3-.6-.1-.6-.6 0-1.2 0-1.8.1-1.3-1.1-2.2-2.4-2.6-3.8-.7-3.4-1.4-2-2.5-6.1s-.5-4.3.2-9.4c.5-3.6-.4-4.3-1.4-5.4-.7.4-1.2.9-1.2 1.6l-.2 3.6c0 5.3-1 10.2.2 14.7l-.1 5.6c0 2 2 3.6 3.5 3.6l10.9.1c5.7.6 10.4.5 19.7-.6v-1.6c-2.6-.2-5-.4-6.8-.7.2-.2.2-.3 0-.3zM25.7 97.8c1 .2 2.3-.1 3.5-.7-1.7-.2-4-.7-6.2-1 0-.1-.1-.2-.2-.2-1.1-.6-1.7-.6-3-.6-2.6 0-4.3-1.3-6.5-2-3.1-1-6.4-.2-9.6-.1-.4 0-.5.6-.1.7 3.5.6 7-.7 10.3.9.5.3 1 .6 1.6.9-3.7.1-10 .3-15.5.5v1.6l8.8-.3 16.9.3zm-.3 33.4c.7-.1 8.8.2 9.4.2l17-.6 16.8.4c1.1.2 2.7-.2 3.9-1-1.5-.4-3.3-.9-3.9-1.1-.7-.2-4.4-1-7.7-1.2-1.2-1-2.6-1.4-4.5-1.4-4 .2-7.4-1.6-11.5-1.3-.3 0-.3.4 0 .4 1.8.2 3.6.2 5.3.7 1 .3 2.3 1 3.4 1.2 1.1.2 2.2-.1 3.3 0 .5 0 1.1.1 1.6.2-1 .1-1.9.3-2.5.7-2.6 1.8-4.7.3-8.8.3s-15.2-.6-15.2-.6-11.4.3-15.8.9c-1.1.1-2.8.2-4.8.3.3-.3.5-.6.8-.8 2.5-2.3 4.5-2.4 7.8-2.2 4.9.3 9-1.6 13.9-2.1.1 0 .1-.2 0-.2-2.7.2-5.2.6-7.8 1.3-3.2.9-6.2-.1-9.5-.1-4.3 0-3.9 1.6-6.2 4.1-3.4.1-7.3 0-10.5-.2v1.8l4.6.1c6 .8 11.1 1.4 20.9.2zm.3 33.8c1.2.2 2.9-.2 4.1-1.1-1.5-.2-4.2.3-5.5-.2-1.7-.6-5.2-.6-8.3-.2-2 .3-9.6-.1-16-.7v2.1l8.8-.3 16.9.4zm22.8 30.8c-.6-.1-1.5-.1-2.6-.2-.3-1.5-.9-3.2-2.2-3.6-.5-.2-.9.1-1.4.1-1 .1-1.9 0-2.8-.2-1.3-.3-2.5-.7-3.9-.6-.2 0-.2.3 0 .3 1.9.4 3.6 1.4 5.5 1.6.5.1 1.1-.1 1.5-.1 1.5.3 2.1 1.2 2.4 2.4-5.8-.4-15.4-.8-19.5-.8-5.1 0-20.8.3-25.4.3v3.2l4.6.1c5.9.6 11 1.2 20.8 0 .7-.1 8.8.2 9.5.2l17-.6 16.8.4c1.1.2 2.7-.2 3.9-.9-2-.1-4.8-.2-6.1-.2-2.2 0-14.3-1-18.1-1.4zM25.7 32.1c1.3.2 3.2-.3 4.5-1.3-1.4-.3-3.4-.6-4.8-.9-3.4-5.6-12.7-4-18.1-5.5-.1 0-.1.1-.1.1 2.5 1 5.1.9 7.7 1.5 2.8.6 7 1.3 9.1 3.6-2.3-.1-6.6.6-9.5-.3-2.1-.6-9.5-.6-14.5-.8V32l8.8-.3 16.9.4zm-.3 33.3c.7-.1 8.8.2 9.4.2l17-.6 16.8.4c.9.2 2 0 3.1-.5-2-.1-4.3-.6-5.9-.8-2.5-.3-7.3-1.3-10.8-1.9-.4-.1-1-.1-1.8-.1 1.1-.3 2.2-.2 3.4-.3.4 0 .5-.5.1-.7-1-.4-2.1-.3-3.1-.1-.5.1-1 .3-1.5.5-.3.2-.7.4-1 .6-6.5.3-17.9 1.7-19.9 2-2.5.3-18.5-.3-21.7-1.3-1.3-.4-3.7-.5-6.3-.7 4.4-1.9 9.8-.1 14.5-.3 4.2-.2 8.4-.8 12.4-2.2.2 0 .1-.3-.1-.2-6.9 1.7-13 1.8-20.1 1-3.2-.4-5.4-.3-8 1.6-.6.1-1.3 0-1.9 0v3.4l4.6.1c5.9.5 11 1.1 20.8-.1zM155.5 29c3.6-.9 6.7-1.5 10.4-.8 2.3.5 4.3 1 6.6.6.1 0 .1-.2 0-.2-3.4.4-6.6-1.2-9.9-1.4-2.5-.1-5 .2-7.3 1.4-.1.2 0 .5.2.4zM55.2 12c.9-.5 1.8-.7 2.8-.8.1 0 0-.1 0-.1-1 0-2 .3-2.9.8-.1 0 0 .1.1.1zm5.5-.8c1-.1 1.9-.1 2.9-.3.1 0 .1-.1 0-.1-1 0-1.9.2-2.9.3-.2-.1-.2.1 0 .1zm31.1 39.5c.5 0 .5-.8 0-.8-.9 0-2 .2-2.6.9-.2.2 0 .5.3.4.8 0 1.5-.4 2.3-.5zm-6.8 5c-.2 0-.3 0-.4.1-.2.1-.2.4 0 .5.1.1.2.1.4.1.4 0 .4-.6 0-.7zm36 1.7c.1 0 .1-.1.2-.1.1-.1.1-.2 0-.3-.1 0-.1-.1-.2-.1-.6-.5-.6.9 0 .5zm8.9 1.4c.1-.2-.1-.3-.3-.2-.2.1-.3.3-.6.1-.3-.2-.6.3-.3.5.5.1 1.1.1 1.2-.4zm26-6.9c.2-.1.2-.4 0-.5-.2-.1-.3-.1-.5-.1-.6-.1-.6.8 0 .7.2 0 .3 0 .5-.1zm28.2 7.5c.2-.1.2-.3 0-.4-.4-.1-.7-.1-1.1-.1-.4 0-.4.6 0 .6s.8 0 1.1-.1zm6.8.2c.1 0 .1-.2 0-.2-.7-.2-1.4-.1-2.1-.1-.3 0-.3.5 0 .5.7-.1 1.4 0 2.1-.2zM22.2 24c2.6.9 4.7-1.3 6.9-2.2.2-.1.1-.3-.1-.3-2.3.6-4.2 2.9-6.7 2.1-.3-.1-.4.3-.1.4zm5.8-8.4c.3 0 .3-.5 0-.5-.4-.1-.4.5 0 .5zm14.1 43.8c.2 0 .2-.4 0-.4-.3 0-.3.4 0 .4zm11.8-.5c.4-.2.9-.4 1.3-.6.1-.1 0-.2-.1-.2-.5.1-.9.3-1.3.5-.1.1-.1.4.1.3zm-14.8-9.5c-7-.4-14.1-.5-21.1-1.3-5.1-.5-7.7-1.6-12.3 1.1-.1.1 0 .2.1.2 4.7-2.6 10.4-.5 15.6-.4 5.9.1 11.8.4 17.7.6.2 0 .2-.2 0-.2zm15.3-5.2c-.6-.1-1.2-.1-1.9-.2-.4 0-.4.6 0 .6.6 0 1.3 0 1.9-.2.1 0 .1-.2 0-.2zm8.1 2.9c.2 0 .2-.3 0-.3s-.2.3 0 .3zM45 51.5c.2 0 .2-.2 0-.2s-.2.2 0 .2zm-17.6 1.4c.2 0 .2-.4 0-.4s-.2.4 0 .4zm28 29.3c.2 0 .2-.2 0-.2-1.1-.4-2.2-.6-3.4-.9-.3-.1-.4.4-.1.4 1.2.3 2.3.6 3.5.7zm18.7-.1c.2-.1.1-.4-.1-.4-.9-.1-1.8.2-2.6.4-.2.1-.2.5.1.4.8 0 1.7 0 2.6-.4zm11.4 1.6c.2 0 .2-.3 0-.3s-.3 0-.5-.1c-.3 0-.3.5 0 .5.2 0 .3-.1.5-.1zm20.9 6.9c-.3 0-.3.5 0 .5s.3-.5 0-.5zm-13.1 2.3c.3 0 .3-.5 0-.5-.5 0-1.1 0-1.6.1-.2 0-.2.3 0 .3.6.2 1.1.1 1.6.1zm44.6-10.4c-.3-.1-.4.4-.1.4.5.1.9.2 1.4.2.2 0 .2-.3.1-.4-.6 0-1-.1-1.4-.2zm-8.7 11.3c-.3 0-.3.5 0 .5.7 0 1.4.1 2.1-.1.2 0 .2-.3 0-.3-.7-.2-1.4-.2-2.1-.1zm22.9-3.2c-2.3-.1-4.5.1-6.6 1.1-.3.2-.1.8.2.6 4.9-2.1 10.3.2 15.3-.4.4 0 .5-.6.1-.7-2.8-.6-6-.5-9-.6zm20.5 2.7c1.2.1 2.4.4 3.6.6.2 0 .3-.2.1-.3-1.1-.6-2.5-.8-3.8-.8-.3-.1-.3.5.1.5zm20.9-6.7c.2 0 .2-.3 0-.3-1.2-.1-2.4-.3-3.6-.3-.2 0-.2.3 0 .3 1.1.2 2.4.2 3.6.3zm-9.4-.5H183c-.1 0-.1.1 0 .1h1.1c.1.1.1-.1 0-.1zm-10 0c-5.1.5-10.1 0-15.1-.5-.3 0-.3.4-.1.5 5 1.1 10.2 1 15.2.5.3-.1.3-.5 0-.5zm-157.2 3c-.2.1 0 .4.2.3.8-.4 1.6-.5 2.5-.5.1 0 .2-.2 0-.2-.9-.4-1.9-.1-2.7.4zm6.6-10.5c-.1 0-.1.2 0 .2 1.4-.1 2.8-.2 4.2-.1.2 0 .2-.3 0-.3-1.4-.1-2.9-.1-4.2.2zm-18 36.5c-.2 0-.2.3 0 .3 1.1 0 2.3 0 3.4-.1.1 0 .1-.2 0-.2-1.1-.1-2.3 0-3.4 0zm5.4 1.2c.3.9.8 1.9 1.6 2.4.1.1.1-.1.1-.1-.6-.7-1.2-1.4-1.5-2.4 0-.2-.3-.1-.2.1zm3.8 2c-.2.1 0 .4.2.3 3.7-1.7 6.9-2.4 10.9-2.6.2 0 .2-.3 0-.3-3.6-.5-7.9.6-11.1 2.6zm99.6.4c.1 0 .1-.1 0-.2h-.5c-.1 0-.1.2 0 .2h.5zm11.6 6.8c1-.3 2-.2 3.1-.2.2 0 .3-.3.1-.3-1-.5-2.3-.3-3.3.1-.4 0-.3.5.1.4zm8.8.9c.3 0 .3-.4 0-.4s-.3.4 0 .4zm3.6.2c.2 0 .2-.3 0-.3s-.2.3 0 .3zm2.6-13.8c3.1.3 5.9 1.8 9 .9.3-.1.3-.6-.1-.6-2.9.3-5.5-.6-8.3-.8-3-.2-5.9 1.2-8.9.5-.4-.1-.6.4-.3.6 3 1.9 5.5-.9 8.6-.6zm-15.7.5c-2.7.6-5.3.8-8 1-.2 0-.2.3 0 .3 2.7 0 5.5-.4 8.1-1 .2 0 .1-.4-.1-.3zm54.4 5.2c.2 0 .2-.3 0-.3s-.2.3 0 .3zm.6-3.8c-.3 0-.5.1-.8.1-.2 0-.2.3 0 .3.3 0 .5.1.8.1.3 0 .3-.5 0-.5zm-6.8 9.7c.4 0 .4-.6 0-.6s-.4.6 0 .6zm-1.9-5.2c-.2 0-.2.3 0 .3s.2-.3 0-.3zm11.6 4.2c.2 0 .2-.3 0-.3-.2-.1-.4-.1-.6-.1-.3 0-.3.5 0 .5.2 0 .4 0 .6-.1zm4.6 0c-.2 0-.2.3 0 .3s.2-.3 0-.3zm8.2 1.7c-.4 0-.4.6 0 .6.3 0 .3-.6 0-.6zM158.6 150c.6.1 1.3.2 1.9.2.2 0 .2-.3 0-.3-.6-.2-1.2-.3-1.9-.3-.2-.1-.2.4 0 .4zm7.7 1.1c.1-.1 0-.2-.1-.2-.5.2-1 .3-1.5.2-.2 0-.2.3 0 .3.6.1 1.2 0 1.6-.3zm3.9-.1c-.3 0-.3.5 0 .5s.3-.5 0-.5zm-103.7 2.1c.2-.1.3-.2.5-.4.1-.1 0-.3-.2-.3-.2.1-.4.1-.6.2-.2.1 0 .7.3.5zm8.5-1.9c-.4 0-.4.6 0 .6s.4-.6 0-.6zm26.7 37.5c-.3 0-.3.6 0 .5 1-.1 2.2-.1 3.2-.4.2-.1.2-.3-.1-.4-1 0-2.1.2-3.1.3zm18.5 5.3c-.2.1-.2.4 0 .4.2.1.4.1.6.1.3 0 .3-.6 0-.5-.2-.1-.4-.1-.6 0zm6.1-.2c.2 0 .2-.3 0-.3-.5-.1-1-.1-1.6-.1-.3 0-.3.4 0 .4.5.1 1.1.1 1.6 0zm8.6-.2c-.3 0-.3.5 0 .5s.3-.5 0-.5zm46.7 1.6c.8-.2 1.8-.2 2.4-.7.1-.1 0-.2-.1-.2-.8-.2-1.7.2-2.5.4-.4 0-.2.6.2.5zm-161.5-5.3c-.1 0-.1.2 0 .2 3-.8 6.1-.4 8.8 1.1.2.1.4-.2.2-.3-2.8-1.7-5.9-2.1-9-1zm-15-5.2c-.4-.1-.6.6-.2.6 2.9.7 6.1.8 8.9-.5.3-.1.1-.6-.2-.5-3 .5-5.6.9-8.5.4zm25.5-7.2c-.5 0-1.1.1-1.6.2-.2.1-.1.4.1.4l1.5-.3c.2 0 .2-.3 0-.3zm13 1.4c-.2.1-.1.4.1.4 1.8-.4 3.5-.9 5.2-1.7.1-.1 0-.2-.1-.2-1.7.4-3.4 1-5.2 1.5zm11.1-1.9c-.9-.1-1.8-.1-2.7-.1-.3 0-.3.4 0 .4.9 0 1.8.1 2.7-.1.1.1.1-.1 0-.2zm4.9-.3h.3c.1 0 .1-.1 0-.1h-.3c-.1 0-.1.1 0 .1zm4.2 5.7c.3 0 .3-.4 0-.4-.3-.1-.3.4 0 .4zm-10 6.6c.1 0 .1-.1 0 0 0-.1 0 0 0 0zm-24.3-8.7c.3 0 .3-.5 0-.5s-.3.5 0 .5zm-13.3-24.6c.3 0 .3-.5 0-.5s-.3.5 0 .5zm1.8-.5c.3 0 .3-.5 0-.5s-.3.5 0 .5zm-7.6 3.4c.3 0 .3-.5 0-.5s-.3.5 0 .5zm10.4-9.7c.1 0 .1-.1.2-.1.1-.1.1-.2 0-.3-.1-.1-.1-.1-.2-.1-.6-.3-.6.8 0 .5z" fill="#e0e0e0" stroke-width="none" opacity="1" stroke="none"></path><path id="SvgjsPath11239" d="M65.5 71.8c-3.3-1.8-5.6-.7-9.1-.7-4.1 0-8-.9-12.2-.2-.2 0-.2.4 0 .4 2-.2 3.9-.4 5.9-.2 1.9.2 3.7 1.1 5.5 1.3 3.4.3 6.2-1.4 9.7-.4.2 0 .3-.2.2-.2zm21.3-1.4c-5.7.6-11.2 1.2-16.9 1.2-.2 0-.2.2 0 .2 5.6.1 11.4-.2 16.9-1.3.1 0 .1-.1 0-.1zm12.6-1.2c-1.6-.6-3.3-.4-4.8.2-.1 0 0 .1 0 .1 1.6-.6 3.1-.5 4.8-.1 0 0 .1-.1 0-.2zm14.3 1.3c-1.4-.9-3.1-.8-4.7-.7-.2 0-.2.4 0 .4 1.2 0 2.5 0 3.6.4 1.3.5 1.8 1.4 2.2 2.6.1.2.3.2.4 0 .2-1.1-.6-2.1-1.5-2.7zm3.2 7.7c0-.2-.3-.2-.3 0v1.2c0 .1.2.1.3 0 .1-.4 0-.8 0-1.2zm-8.3 24.7c-5.5-.5-11.1-.2-16.6-.1-3.7.1-8.1-.6-11.5.9-.2.1-.1.5.2.4 4.1-1.7 9.9-.5 14.3-.5 4.6 0 9.2.2 13.7-.2.2.1.2-.5-.1-.5zm50.3 1.4c-6.2-1.2-12.6-1.3-18.9-1.6-7.2-.3-14.4-.7-21.6.1-.2 0-.2.4 0 .3 6.9-.6 13.7-.7 20.6-.2 6.6.5 13.1 1.8 19.8 1.7.2.1.3-.2.1-.3zm1.3 2.8s0 .1 0 0c.1.1.1 0 0 0zm.2 0c0-.1-.1-.1-.1 0 .1 4-.3 8.1-.2 12.1 0 .1.1.1.2 0 .5-3.9.3-8.1.1-12.1zm35.6-4c-2.5 0-5.1.3-7.6.1-1.9-.2-3.8-1-5.7-1.1-3.9-.2-7.3.5-11.2-.2-.4-.1-.5.5-.2.6 4.4 1.3 9.1 1 13.6 1.3 3.6.2 7.4-.1 11-.3.3-.1.3-.4.1-.4zm-36-33.2c-6.2.2-12.5.6-18.7.1-4.8-.4-10.2-2.5-14.9-.8-.2.1-.1.4.1.3 4.9-1.5 11.5 1.3 16.7 1.6 5.6.3 11.3-.2 16.8-.9.1 0 .2-.3 0-.3zm31.7-32.4c-3.1-2-7.1-.2-10.6-.6-3.8-.4-7.1-1-11 0-.3.1-.2.5.1.5 3.8-.6 7.1 0 10.8.5 3.4.4 7.4-1.2 10.6 0 .2 0 .3-.3.1-.4zm-76.6-.3c-11 1.4-21.9-.6-32.9 0-.3 0-.3.5 0 .5 11 .2 22.2 2.4 33-.2.1 0 .1-.3-.1-.3zm40.1-.3c-7.5.5-14.8-1.3-22.4-.2-.2 0-.1.3 0 .3 5.1-.6 9.4-.2 14.4.5 2.4.3 11.8-.5 11.9 2.8 0 .3.4.4.5.1.8-3.1-1.8-3.6-4.4-3.5zM115 5.1c-3.9-2.9-9.1 1-13.3 0-.2 0-.3.2-.1.3 2.8 1.2 5 .4 7.9-.1 3.1-.5 5.8.2 6.7 3.6.6 2.2.5 4.8.7 7 0 .3.5.3.5 0-.2-3.3.6-8.6-2.4-10.8zm-21.7-.9c-3.8 0-7.7-.1-11.5-.2-.2 0-.2.2 0 .2 3.9.3 7.7.2 11.6.1.1.1.1-.1-.1-.1zm-35.6 23c-2.4-.5-4.8-.6-7.2-.5-1.6.1-10.7 2.2-9.6-1.8.1-.2-.3-.4-.4-.2-1 1.9.5 3.5 2.4 3.8 1.5.2 3-.4 4.5-.6 3.4-.6 6.8-.6 10.3-.5.1.2.1-.1 0-.2zm2.8.4c-.4 0-.4.6 0 .6s.4-.6 0-.6zm7.3 1.4c-2-.5-4.1-.8-6.1-1-.1 0-.2.2 0 .2 2 .5 4 1 6.1 1.1.1.1.2-.2 0-.3zm63.5-.8c-1.1-.2-2.4-.1-3.2-.9-1-1-.6-2.4-.3-3.5.3-1.3.6-2.6-.1-3.9-.1-.2-.5 0-.4.2 1 2.2-1.2 4.5-.4 6.7.6 1.7 2.7 2.2 4.3 2 .3 0 .5-.5.1-.6zm13-8.5c-2.5-.4-5.1-1.4-7.6-1.6-2.8-.2-7.1 2.3-9.5.5-.2-.1-.4.2-.2.3 1.6 1.4 3.2.8 5 .3 4.5-1.3 7.9.5 12.3.7.1.1.1-.1 0-.2zM126.6 3.6c0-.2-.3-.4-.4-.1-.5 2.6-.5 5.1.3 7.6.1.2.3.1.3-.1-.4-2.5-.6-4.9-.2-7.4zm-96.9.9c-2.5-2-5.2-1.5-8.2-1.3-4.8.5-9.4.3-14.1-.2-.1 0-.2.2 0 .3 3.4.7 6.7 1.1 10.2 1.1 4.1 0 7.9-.9 11.9.6.2 0 .4-.3.2-.5zm.5 6.1c-.1-1.5.1-3.1-1-4.2-.1-.2-.4.1-.2.2 1.2 1.6.8 4.7.9 6.6.1 1.8.1 3.6.3 5.3 0 .1.2.1.2 0 .2-2.6-.1-5.3-.2-7.9zm.3 14.7c0-.2-.4-.2-.4 0 .1 1 0 1.9-.1 2.9 0 .1.2.1.2 0 .4-.9.4-1.9.3-2.9zm42.9 16.2c-.1-2.2-1-4.1-3.4-3.6-.2 0-.1.3 0 .3 3.9 1.1 2 9.4 2.2 12.2.2 2.7.7 5.1 1.7 7.5.1.1.2 0 .2-.1-2.1-5.5-.5-10.7-.7-16.3zm-4.7-3.8c-2.1.1-4.2 0-6.3-.1-.2 0-.2.3 0 .3 2.1.4 4.2.3 6.3 0 .2 0 .2-.2 0-.2zm-35.4-1.3c-3.4-.8-6.8-.3-10.3 0-4.2.3-8.4.6-12.5 1.2-.2 0-.2.3 0 .3 7.3-.2 15.5-2.6 22.7-1.1.3 0 .4-.4.1-.4zM17.7 46.7c-2.9 1.2-5.8-1.1-8.7-.3-.1 0-.1.2.1.2 2.9-.8 6 1.9 8.8.3.1-.1 0-.3-.2-.2zm6.9 22.8c-6.8.3-12.3 1.3-18.9-1.2-.2-.1-.4.3-.2.4 2.8 1.2 5.7 2 8.8 2.3 2.7.2 13.1-1.7 14.4 1.7.1.2.5.2.5-.1 0-2.7-2.2-3.2-4.6-3.1zm5.9 9.9c0-.3-.4-.3-.4 0 0 1-.1 2.1 0 3.1 0 .2.3.2.3 0 .2-1 .1-2.1.1-3.1zM53.4 104c-6.5-1.7-13.3-1.4-19.9-1.4-.2 0-.2.2 0 .2 6.7 0 13.2.4 19.8 1.5.2.1.3-.2.1-.3zm.8 24.2c-7.7.5-15.5-1.1-23.2-1.3-.2 0-.2.3 0 .3 7.3 1 16 2.8 23.3 1.3.1-.1.1-.3-.1-.3zm18.1-19.3c.2-2.2 1.1-4.8-1.7-5.3-.3-.1-.5.3-.2.5 2.3 1.5.9 8.9 1.2 11.5.3 3.4.9 6.7 1.6 10.1 0 .1.2.1.2 0-.8-5.6-1.6-11.2-1.1-16.8zm33.3 8.2c-3.7-3.4-7.5-3.4-12-1.8-.3.1-.2.6.1.4 2.2-.7 4.4-1.5 6.7-1 1.8.4 3.3 1.7 5 2.5.2.2.3 0 .2-.1zm15.3 4.2c-.5-1-1.6-1.2-2.6-1-.7.2-1.4.6-2 .9-1.4.7-2.6 1.1-4.2 1.2-.3 0-.3.5 0 .5 1.2 0 2.3-.2 3.4-.7 1.7-.7 3.3-2.2 5-.6.3.2.5 0 .4-.3zm37.4 15.8c-5.6-.4-10.5 2.8-16 1.9-5.4-.9-10.6-1.9-16.1-2.4-.3 0-.3.4-.1.5 6 .9 12.1 2.9 18.1 3.4 1.3.1 2.4-.1 3.6-.4 3.6-1.1 6.5-2.1 10.4-2.3.5-.2.5-.7.1-.7zm30.4-1.4c-6.1 0-13.7-.4-19.6 1.5-.2.1-.1.4.1.4 6.1-1.9 13.2-1 19.5-1.6.2 0 .2-.3 0-.3zm-61.1 24.5c-.8 0-1.2-.3-1.2-.9 0-.3-.1-.5-.1-.8-.1-.4-.1-.9-.1-1.3-.1-.9-.1-1.8-.1-2.7 0-.2-.3-.2-.3 0-.1 1.2-.1 2.4 0 3.6.1.7 0 1.8.5 2.4.4.6 1.5.7 1.6-.2-.1-.1-.2-.2-.3-.1zm36.7-.8c-2.9.3-5.8 1-8.6 1.5-3.6.7-6.6.3-10.2-.2-.2 0-.4.3-.1.4 2.5.4 5.1 1.1 7.6.9 3.7-.3 7.7-1.2 11.3-2.2.3-.1.3-.4 0-.4zm-94.1-22.8c-5.6-.1-10.8 1.8-16.3.2-4.9-1.4-9.8-1-14.8-.6-.1 0-.1.2 0 .2 3.2-.1 6.5-.4 9.7-.2 3.1.2 5.3 1.9 8.2 2.4 3.9.7 9.5-.6 13.3-1.6.2 0 .1-.4-.1-.4zm45.6 0c-6.7-.7-13.4-.6-20.1-1-6.1-.3-11.6.9-17.6 1-.2 0-.2.3 0 .3 5.9-.1 11.6-1.2 17.6-.8 6.7.4 13.4 1.2 20.1 1.3.5 0 .5-.7 0-.8zm1.7 10c-.1-.2-.3-.3-.4-.5-.4-.8-.3-1.4-.1-2.3.4-1.8.5-3.2-.5-4.9-.2-.3-.6 0-.5.3.6 1.1.8 2.4.4 3.6-.2.7-.8 1.4-.9 2.1-.1 1.2 1.4 1.7 1.3 3 0 .3.3.3.5.1.4-.5.4-.8.2-1.4zm.2 4.5c0-.3-.4-.3-.4 0 0 1.1-.1 2.3.1 3.4 0 .2.3.2.3 0 .1-1.1 0-2.3 0-3.4zM61 153.5c-2.8-.3-2.3-.8-4.9-2.9-.2-.2-.5-.8-.8-1.1-3.4-2.8-13 2.4-15.5-1.7-.1-.2-.4 0-.3.2 2.5 4.9 10-.1 14.1 2 2.1 1.1 1 2.4 2.7 3.5 1.2.8 3.5.4 4.8.3.1 0 .1-.3-.1-.3zm10.1 1.6c-1.6-.1-3.2.1-4.8.2-.3 0-.3.4 0 .4 1.6-.1 3.3-.1 4.8-.4.2-.1.1-.2 0-.2zm21.3-8.7c-1.6-.2-3.2-.1-4.8-.1-.3 0-.3.4 0 .4 1.6 0 3.2.1 4.8-.1.2 0 .2-.2 0-.2zm-69.7-8.8c-3.3-1.1-6.2-.6-9.6-.4-4 .2-7.8-.3-11.6-1.6-.2-.1-.4.3-.2.4 7.1 3.1 13.8 1.5 21.3 2 .2 0 .3-.3.1-.4zm4.3-.1c-.2 0-.3.4-.1.4 1.4.2 2.3 1.4 2.5 2.8 0 .1.2.1.2 0 .4-1.6-1.1-3.1-2.6-3.2zm3.2 6.8c0-.2-.3-.2-.3 0-.1 1.5-.4 3.2-.1 4.6 0 .2.4.2.4 0 .4-1.4.1-3.1 0-4.6zM71.8 173c-.1-.4-.6-.3-.6.1-.3 4.4.1 8.9.2 13.3 0 1.7.7 4.8.1 6.4-1.2 3.1-4.3 2.6-6.8 2.8-.2 0-.2.3 0 .3 4-.1 7.5 1.2 7.8-3.1.3-6.4.4-13.6-.7-19.8zm-.8-3.6c-2.5-.7-5.3 0-7.8.2-2.8.3-5.5.6-8.3 1.1-.2.1-.2.4.1.4 5.3-.1 10.7-1.4 16-1.3.2.1.2-.3 0-.4zm-24.1.2c-5.4-.9-11-1.3-16.4-.8-6.1.6-11.8 2.4-18 2.3-.2 0-.2.2 0 .3 4.8.5 9.5-.5 14.3-1.2 6.8-1 13.2-1.1 20-.2.2 0 .3-.4.1-.4zm6.6 10.5c-1.9.2-3.7.6-5.6.9-.2.1-.1.4.1.4 1.8-.3 3.7-.6 5.5-1.1.2 0 .1-.2 0-.2zm39.2 9.6c-1.6-2.5-5-3.6-7.9-2.8-.3.1-.2.5.1.5 2.9-.4 5.3.5 7.4 2.5.3.1.5 0 .4-.2zm11.5 1.7c-1.4-.1-3 .3-4.4.5-.3 0-.2.6.1.5 1.4-.2 3-.2 4.4-.7.1 0 .1-.3-.1-.3zm7.2-.3c-.2.1-.5.1-.7.2-.2.1-.1.3.1.3.2-.1.5-.2.7-.3.1-.1 0-.3-.1-.2zm17.1-4c-1.3-.9-3-1-4.5-.7-.3.1-.2.6.1.5 1.5-.3 2.9-.1 4.3.4.1.1.2-.1.1-.2zm7.3 1.6c-.7 0-1.4 0-2.2-.1-.2 0-.2.3 0 .3.7 0 1.4 0 2.2-.1.2 0 .2-.1 0-.1zm8 .4c-.6.1-1 .2-1.6.1-.3-.1-.5.4-.1.5.6.1 1.3.1 1.9-.2.1-.2 0-.4-.2-.4zm5.1-8.1c-.3 0-.3.5 0 .5s.3-.5 0-.5zm-64.4-10.8c-1.1-.8-2.4-.9-3.8-.7-.3 0-.2.4.1.4 1.2-.2 2.4.1 3.6.5.1.1.2-.1.1-.2zm48-.1c-2.8-.9-5.2-.4-8.1.1-4.4.8-8.4.6-12.8.7-3.3.1-6.4 1.4-9.8 1.3-3.3-.1-6.2-.9-9.5-.3-.2 0-.1.3 0 .3 3.2-.2 6.2.6 9.4.8 3.2.2 5.8-.9 8.9-1.1 3.6-.3 7.1.4 10.7-.1 3.7-.6 7-1.6 10.9-1 .6.2.8-.5.3-.7zm25.4-.2c-3.6-.9-7-.3-10.6 0-3.2.3-6.3-.8-9.3.4-.2.1-.1.5.1.4 3.2-.8 6.5.2 9.8.1 3.3-.2 6.6-.1 9.9 0 .4-.1.5-.7.1-.9zm1 1.6c-.2-.2-.5.1-.4.3.4.5.6 1 .8 1.5.2.5.2 1 .3 1.6.1.2.4.2.4 0 .3-1.3-.3-2.6-1.1-3.4zm10.8-.5c-.5 2.7-.8 5.4-.2 8.1 0 .2.4.2.4-.1.1-2.7 0-5.3.4-7.9 0-.2-.5-.4-.6-.1zm.5 11.7c0-.3-.4-.3-.4 0-.1 1 .3 1.9.8 2.7.7 1.2 1.2 2 1.2 3.4 0 .2.2.2.3.1 1.3-2-1.9-4.2-1.9-6.2zm20-12.2c-3.4-.3-6.8 0-10.3-.6-.3-.1-.4.4-.1.5 3.4.6 7.1 1.4 10.5.8.4 0 .2-.6-.1-.7z" fill="#ffffff" stroke-width="none" opacity="1" stroke="none"></path></g><g id="svga-group-humanwrap-move" transform="matrix(1,0,0,1,0,-6)"><g id="svga-group-humanwrap"><g id="svga-group-hair-back-move" transform="matrix(0.9999997615814209,1.80215575795728e-9,-1.80215575795728e-9,0.9999997615814209,0.00002410317028989084,0.00003439047941355966)"><g id="svga-group-hair-back"><path id="SvgjsPath10845" d="M58.2 108.5s4.7 23.8 2.2 38-2.7 18.4-6 23.8-5 6.7-8.2 9.9c-3.2 3.2 1.7 15.4 1.7 15.4l109.7-2.2s-7.4-10.7-12.2-17.1c-4.7-6.4-6.2-8.9-7.2-17.1s.7-50.4.7-50.4l-69-2.7-11.7 2.4z" fill="#2a232b" stroke-width="none" opacity="1"></path><path id="SvgjsPath10846" d="M76.7 138.9c0-.3-.5-.3-.5 0 0 1.4-.1 2.7-.2 4.1 0-3-.1-6-.3-9 0-.1-.1-.2-.2-.2 0-.8 0-1.6-.1-2.3 0-.3-.4-.3-.4 0-.2 14.5-2.8 28.2-6.4 42.2-.1.4.4.5.6.2 2.9-7.7 4.7-16.1 5.7-24.4-.7 8.7-2.2 17.2-4.3 25.8-.1.3.4.4.4.1.3-.8.5-1.6.8-2.4 0 .3.4.3.5 0 3.1-10.9 4.7-22.9 4.4-34.1zm.1.2c.8 10.3-.2 20.1-1.3 30.3 0 .4.6.4.6.1 2.3-9.9 2.2-20.4 1.2-30.4 0-.4-.6-.4-.5 0zm-4.9 12.5c.7-4.8 1.1-9.7 1.2-14.5 0-.2-.2-.3-.4-.2v-2c0-.3-.4-.3-.4 0-.1 13.1-2.6 25.6-6.3 38.1 0 .1 0 .2.1.2l-.3 1.2c-.1.3.4.5.5.1 1.5-4 2.8-8.2 3.7-12.4.8-3.3 1.5-6.9 1.9-10.5zm-.2-21.5c-1.1 15.6-4.9 30.4-9.1 45.4-.1.3.3.4.4.1 5.9-14.3 8.2-30.1 9-45.5.1-.3-.3-.3-.3 0zm-2.7-1.4c0-.2-.4-.2-.4 0 .2 6.8-.2 13.4-1.2 19.8.5-4.8.5-9.6.1-14.4.1-2 .2-3.9.3-5.9 0-.3-.4-.3-.4 0 0 .9-.1 1.7-.2 2.6-.1-.1-.3-.1-.3 0 .1.6.1 1.3.1 1.9-.3 3.4-.7 6.7-1.2 10 .7-5.9.8-12 .2-17.9 0-.2-.4-.2-.4 0 .3 7-.2 13.8-1.2 20.4.9-6.9 1.1-13.9.6-20.8 0-.2-.3-.2-.3 0 .6 13.9-1.5 27.1-5.8 39.9 1.2-4.4 2.1-8.9 2.9-12.9 2.2-11.6 2.6-23.4-.7-34.8-.1-.2-.5-.1-.4.1 2.8 11.4 2.5 23 .3 34.5-2 10.3-4.5 22.4-11.9 30.2-.2.3.1.6.4.4 1.4-1.3 2.6-2.7 3.7-4.3-1 1.7-2 3.4-3.1 5.1-.1.2.2.4.3.2.8-1.1 1.5-2.2 2.2-3.4 0 .1-.1.2-.2.3-1.1 1.9-2.3 3.8-3.6 5.7-.2.3.2.6.5.4 11-13.2 16.1-30.2 17.8-47.2-.1 15.5-4.2 29.9-11.5 43.9-.1.2.2.4.3.2 1.1-1.8 2.2-3.6 3.2-5.5-.5 1.2-1.1 2.5-1.6 3.7-.2.3.3.6.5.3 8.8-15.9 12.3-34.5 11-52.5zm54.7 6.6c0-.3-.5-.3-.5 0-.9 14.9-1.7 31.7 5.7 45.3.1.3.6.1.5-.2-6-14.7-6.1-29.6-5.7-45.1zm4.7 34.3c.1.2.4.1.3-.1-1.6-5-2.7-10-3.5-15.1-.5-5.3-.4-10.6.2-16.1 0-.3-.5-.3-.5 0-.2 1.7-.4 3.5-.5 5.3V141c0-.2-.3-.2-.4 0-.2 3.4-.1 6.8.2 10.1.2 10.2 2.2 20.5 6.6 29.7.1.3.6.1.5-.2-1.8-5-3.2-10-4.3-15 .4 1.2.9 2.6 1.4 4zm.5-8.4c-1-8.9-1.1-17.7 0-26.9 0-.2-.3-.2-.3 0-.9 5-1.4 10.1-1.5 15.2-.3-4.5-.2-9.1.4-13.8 0-.2-.4-.3-.4-.1-.4 3-.7 6-.8 9-.1-2.4 0-4.9.2-7.4 0-.3-.4-.2-.4 0-1.2 10-.6 20.6 2.5 30.3.6 3.1 1.3 6.2 2.3 9.2.1.3.6.2.5-.1-.4-1.8-.7-3.6-1-5.4v-.1c0-.1 0-.2-.1-.2-.1-.4-.1-.7-.2-1.1 1.3 3.7 3 7.3 5 10.7.2.3.7 0 .5-.3-2.9-6.1-5.2-12.5-6.7-19zm2.3-32.9c0-.3-.4-.4-.4-.1-3.2 16.9-.9 35.1 7.5 50.3.1.3.5 0 .4-.2-7.2-15.9-10.1-32.6-7.5-50zm2.1-.5c0-.2-.3-.2-.4-.1-2.9 18.2-.3 39.9 8.8 56.2.1.2.5.1.4-.2-3.2-8.8-6.4-17.3-8-26.6-1.6-9.7-1.6-19.4-.8-29.3zm9.8 50.6c-3-7.3-5.3-14.6-6.8-22-1.2-9.4-1.4-19-.6-28.6 0-.2-.4-.2-.4 0-.6 5.3-.8 10.7-.8 16-.4-5.8-.3-11.6.4-17.6 0-.3-.4-.3-.5-.1-1.7 11.9-1.2 24.5 1.8 36.2.7 3.9 1.6 7.8 2.8 11.6.1.3.5.2.4-.1-.3-1.4-.7-2.9-1-4.3 1.1 3.1 2.4 6.1 4 9 .3.4.8.2.7-.1zm-9.3-4.4c.1.2.4.1.4-.1-3.9-13.2-5.8-26.1-4.7-39.9 0-.1-.1-.1-.2 0-1.8 13.3-.6 27.5 4.5 40z" fill="#1b141c" stroke-width="none" opacity="1"></path></g></g><g id="svga-group-humanbody-back"><path id="SvgjsPath5069" d="m168.5 219.5-1.7-21.5s.7-9-8.8-15.3-23.4-10.1-29.5-14.2c-6.1-4.1-9.2-4.5-9-16.9s.9-40.3.9-40.3H79.6s.7 27.9.9 40.3c.2 12.4-2.9 12.8-9 16.9-6.1 4.1-20 7.9-29.5 14.2S33.2 198 33.2 198l-1.6 21.5h136.9z" fill="#f3d4cf" stroke-width="none" opacity="1" stroke="none"></path></g><g id="svga-group-chinshadow-single"><path id="SvgjsPath5250" d="M100 160.9s9.1.44 19.5-7.32c-.01-.63-.01-1.28 0-1.98.2-12.4.9-40.3.9-40.3H79.6s.7 27.9.9 40.3c.01.7.01 1.36 0 1.98 10.4 7.76 19.5 7.32 19.5 7.32z" fill="#d4958a" stroke-width="none" opacity="0.65" stroke="none"></path></g><g id="svga-group-humanbody-front"><path id="SvgjsPath5070" d="M73.8 175.9c5.1 2.9 11.8 5.2 17.6 5.7.4 0 .4-.6.1-.7-2.8-1.1-5.9-1.7-8.8-2.6-2.9-.9-5.8-2-8.8-2.7-.1-.1-.3.2-.1.3zm35.2 6.2c5.3-.6 11.3-3 15.9-5.8.3-.2.1-.6-.2-.5-2.6.9-5.2 2-7.8 2.9-2.6.9-5.4 1.5-8 2.5-.5.1-.5.9.1.9z" fill="#d4958a" stroke-width="none" opacity="1" stroke="none"></path><path id="SvgjsPath5071" d="m168.4 219.4-2.1-21.4c0-2.2-.5-4.5-1.5-6.6-.9-2.1-2.3-3.9-3.9-5.5s-3.5-2.8-5.5-4c-2-1.2-4.1-2.2-6.2-3.1-4.2-1.9-8.6-3.6-12.9-5.4-2.2-.9-4.3-1.9-6.4-3-1.1-.6-2.1-1.2-3-1.9-1-.6-2-1.2-3-1.9s-2-1.5-2.8-2.6c-.8-1-1.3-2.2-1.7-3.4-.7-2.4-.8-4.8-.8-7.2 0-4.7.2-9.4.3-14.1.2-9.4.6-18.7.9-28l.6.6-20.4-.2-20.4-.1.3-.3.7 28c.1 4.7.3 9.3.4 14 0 2.4-.1 4.7-.8 7.1-.3 1.2-.9 2.3-1.6 3.3-.8 1-1.7 1.8-2.7 2.5s-2 1.3-2.9 2c-.9.6-1.9 1.3-3 1.9-2.1 1.2-4.2 2.1-6.4 3.1-4.3 1.9-8.6 3.6-12.8 5.6-2.1 1-4.2 2.1-6.1 3.2-2 1.2-3.8 2.4-5.4 4-1.6 1.6-2.9 3.4-3.8 5.4-.4 1-.8 2.1-1 3.1-.2 1.1-.4 2.2-.3 3.2v.2l-1.5 21.5-1-1.1 34 .1c11.3 0 22.7.1 34.1.2l34.2.3 34.4.5zm.2.2-34 .4-34.2.3c-11.4.1-22.9.2-34.4.2l-34.4.1h-1.1l.1-1.1 1.7-21.5v.1c-.1-5.1 2.2-9.8 5.7-13.3 1.7-1.7 3.8-3.1 5.8-4.3 2-1.2 4.2-2.2 6.3-3.2 4.3-2 8.7-3.7 13-5.4 2.1-.9 4.3-1.8 6.3-2.9 1-.5 1.9-1.1 3-1.8 1-.6 2-1.2 2.9-1.9.9-.6 1.8-1.4 2.4-2.2.7-.9 1.2-1.9 1.5-2.9.6-2.1.8-4.5.8-6.8 0-4.6-.1-9.3-.2-14l-.6-28v-.3h.3l20.4-.1 20.4-.2h.6v.6c-.1 9.3-.2 18.7-.4 28-.1 4.7-.2 9.4-.2 14 .1 2.3.2 4.6.8 6.7.3 1.1.8 2 1.4 2.9.6.8 1.4 1.6 2.4 2.2.9.6 1.9 1.3 2.9 1.9 1 .7 1.9 1.3 2.9 1.8 2 1.1 4.1 2.1 6.3 3 4.3 1.8 8.6 3.6 12.9 5.6 2.1 1 4.2 2.1 6.2 3.3 2 1.2 4 2.6 5.7 4.3 3.4 3.4 5.6 8.1 5.4 13v-.1l1.4 21.6zm-112.8-.4 1.9-13.8.1 13.8h-2zm88.6 0-1.9-13.8-.1 13.8h2z" fill="#c5796d" stroke-width="none" opacity="1" stroke="none"></path></g><g id="svga-group-clothes-single"><path id="SvgjsPath11099" d="m143.2 220 .1-3.6 26.8-2.6s-1.2-16.5-1.9-20-2.3-8.6-12.1-14-27.7-12.4-27.7-12.4c-31.6 30.5-56-.1-56.7 0 0 0-17.9 7-27.7 12.4s-11.4 10.5-12.1 14-1.9 20-1.9 20l26.8 2.6v3.6h86.4z" fill="#000000" stroke-width="none" opacity="1" stroke="none"></path><path id="SvgjsPath11100" d="M170.7 213.8c-.4-5.8-.7-11.6-1.3-17.4-.3-2.9-.9-6-2.6-8.6-1.6-2.6-3.9-4.6-6.4-6.3-2.4-1.7-5.1-3.1-7.7-4.4-2.6-1.3-5.3-2.5-7.9-3.7-5.3-2.4-10.7-4.5-16.2-6.6-.2-.1-.5 0-.7.1-3.8 3.8-8 7.1-12.7 9.6-4.7 2.5-9.9 4-15.2 4.1-2.7 0-5.3-.3-7.9-.9-2.6-.7-5.1-1.7-7.4-2.9s-4.6-2.7-6.7-4.3c-1.1-.8-2.1-1.7-3.1-2.6-.5-.4-1-.9-1.4-1.4l-.7-.7-.4-.4-.2-.2-.1-.1-.1-.1s-.2-.1-.3-.1h-.1c-5.4 2.1-10.8 4.2-16.2 6.5-2.7 1.1-5.3 2.3-8 3.6-2.6 1.3-5.2 2.6-7.7 4.3-2.4 1.7-4.8 3.7-6.4 6.3-1.7 2.6-2.4 5.7-2.7 8.6-.7 5.8-1.1 11.6-1.6 17.4 0 .5.4 1 .9 1.1l13.4 1.3 12.5 1.2v2.7c0 .6.5 1 1 1 7.3 0 14.5 0 21.8-.1l21.7-.2 43-.6.2-3.5 13.2-1 13.4-1.1c.4 0 .6-.3.6-.6zm-14.1.8-13.4 1.6c-.1 0-.2.1-.2.2l.1 3.6-43.4-.6-21.5-.2c-6.8-.1-13.6-.1-20.4-.1v-2.6c0-.5-.4-1-.9-1L43.5 214 31 212.9c.4-5.4.8-10.9 1.3-16.3.3-2.9.9-5.6 2.3-7.9 1.5-2.3 3.6-4.2 5.9-5.9 2.3-1.6 4.8-3 7.4-4.3s5.2-2.6 7.8-3.8c5.2-2.4 10.5-4.6 15.8-6.8l.2.1.4.3.7.7c.5.5 1 .9 1.5 1.4 1 .9 2.1 1.8 3.1 2.6 2.2 1.6 4.4 3.1 6.8 4.4 4.8 2.5 10.2 3.9 15.6 3.9s10.8-1.5 15.7-3.9c4.7-2.4 9-5.6 12.8-9.2 5.2 2.1 10.4 4.4 15.6 6.7 2.6 1.2 5.3 2.4 7.8 3.7 2.6 1.3 5.1 2.6 7.4 4.2 2.3 1.6 4.5 3.5 6 5.8s2.2 5 2.4 7.9c.3 2.9.6 5.8.9 8.6l.7 8.1-12.5 1.4zm-100.5-7.3-.3-1.1-.4-1c-.9-2.8-2.3-5.4-3.8-7.9-1.6-2.5-3.4-4.8-5.5-6.8s-4.4-3.9-7-5.1c1.2.8 2.3 1.7 3.4 2.6 1.1.9 2.1 1.9 3.1 3 1.9 2.1 3.7 4.4 5.2 6.8.4.6.7 1.2 1.1 1.8.4.6.7 1.2 1 1.9.3.6.7 1.3 1 1.9.3.7.6 1.3.9 2l.4 1 .4 1 .7 2c.5 1.4.8 2.8 1.3 4.1-.3-1.4-.5-2.9-.9-4.3l-.6-1.9zm92.9-9.9c-1.5 2.5-2.9 5.1-3.8 7.9l-.4 1-.3 1.1-.6 2.1c-.3 1.4-.6 2.8-.9 4.3.5-1.4.8-2.8 1.3-4.1l.7-2 .4-1 .4-1c.3-.6.6-1.3.9-2 .3-.6.6-1.3 1-1.9.3-.6.6-1.3 1-1.9.4-.6.7-1.2 1.1-1.8 1.5-2.4 3.3-4.7 5.2-6.8.9-1.1 2-2.1 3.1-3 1.1-1 2.2-1.9 3.4-2.6-2.6 1.3-4.9 3.1-7 5.1-2.1 1.8-3.9 4.2-5.5 6.6z" fill="#000000" stroke-width="none" opacity="1" stroke="none"></path></g><g id="svga-group-head" transform="matrix(0.9999997615814209,1.80215575795728e-9,-1.80215575795728e-9,0.9999997615814209,0.00002410317028989084,0.00003439047941355966)"><g id="svga-group-ears-left-move" transform="matrix(1,0,0,1,0,0)"><g id="svga-group-ears-left"><path id="SvgjsPath6306" d="M64 93.7s-2.3-2.2-5-3.3-5.7.7-6.6 3.4 1.2 14 4.7 18.1 5.8 4.4 8.1 2.3c2.3-2 6.4-9.9-1.2-20.5z" fill="#f3d4cf" stroke-width="none" opacity="1"></path><path id="SvgjsPath6307" d="M65.2 95.3c.4.6.7 1.2 1.1 1.8.4.6.7 1.3 1 1.9.3.7.6 1.3.8 2 .2.7.5 1.4.6 2.2.1.4.1.8.2 1.1l.1 1.2c0 1.6-.2 3.1-.6 4.6-.5 1.5-1.1 2.8-2.1 3.9-.2.3-.5.5-.7.8-.3.2-.5.4-.8.6-.6.4-1.2.7-1.9.7-.7.1-1.4 0-2-.3s-1.2-.7-1.7-1.1-1-.9-1.5-1.5c-.5-.5-.9-1.1-1.3-1.7-1.5-2.5-2.4-5.3-3.2-8.1-.4-1.4-.7-2.8-1-4.3s-.5-2.9-.4-4.5c0-.4.1-.8.2-1.3.1-.2.1-.4.2-.6l.3-.5c.4-.7.9-1.2 1.4-1.7 1.1-.9 2.4-1.3 3.7-1.1.6.1 1.3.3 1.8.6.6.3 1.1.6 1.7 1 1.1.7 2.1 1.5 3.1 2.4l1 1.9zm-4.4-3.8c-.6-.3-1.1-.5-1.7-.7-.6-.2-1.1-.3-1.7-.3-1.1.1-2.2.5-3.1 1.3-.4.4-.8.8-1.1 1.4-.1.3-.3.5-.4.8-.1.3-.2.5-.2.9-.2 1.3-.1 2.8.1 4.2.2 1.4.4 2.9.7 4.3.7 2.8 1.7 5.6 3.3 7.7.8 1 1.8 1.9 2.7 2.7 1 .7 2.1 1.2 3.1 1 .5-.1 1-.3 1.5-.6s.9-.7 1.3-1.2c.7-1 1.4-2.1 1.7-3.4.4-1.3.6-2.6.7-4 0-1.4-.1-2.8-.4-4.2-.6-2.8-1.8-5.4-3.4-7.6-.9-1-2-1.7-3.1-2.3z" fill="#e4b3ab" stroke-width="none" opacity="1"></path><path id="SvgjsPath6308" d="M55.9 93.3c3 .5 5 5.7 5.6 9.2.1.1.1.2.2.3.3.5-.4 1.1-.7.6-.4-.7-1-1.5-1.7-1.8-1.3-.5-2 1-1.7 2.5.4 1.7 1.5 2.8 2.5 4.1.1.1 0 .3-.1.2-1.6-1-4-4.5-2.9-6.7.8-1.6 2.1-1.3 3.2-.4-.7-2-1.3-4-2.8-5.5-.5-.5-1.4-1.3-2.1-1.2-1.2.2-1.2 2-1.3 3.1-.1 1.5.1 3.1.3 4.7 0 .2-.2.2-.2.1-.6-2.4-1.8-9.8 1.7-9.2z" fill="#d4958a" stroke-width="none" opacity="1"></path></g></g><g id="svga-group-ears-right-move" transform="matrix(1,0,0,1,0,0)"><g id="svga-group-ears-right"><path id="SvgjsPath6309" d="M136 93.7s2.3-2.2 5-3.3 5.7.7 6.6 3.4-1.2 14-4.7 18.1-5.8 4.4-8.1 2.3c-2.3-2-6.4-9.9 1.2-20.5z" fill="#f3d4cf" stroke-width="none" opacity="1"></path><path id="SvgjsPath6310" d="M136 93.6c1-.9 2-1.7 3.1-2.4.5-.4 1.1-.7 1.7-1 .6-.3 1.2-.5 1.8-.6 1.3-.1 2.6.2 3.7 1.1.5.4 1 1 1.4 1.7l.3.5c.1.2.1.4.2.6.1.4.2.9.2 1.3.1 1.6-.2 3.1-.4 4.5-.3 1.5-.6 2.9-1 4.3-.8 2.8-1.7 5.6-3.2 8.1-.4.6-.8 1.1-1.3 1.7-.4.5-.9 1-1.5 1.5-.5.4-1.1.8-1.7 1.1-.6.3-1.3.4-2 .3s-1.3-.4-1.9-.7c-.3-.2-.6-.4-.8-.6-.3-.2-.5-.5-.7-.8-.9-1.1-1.6-2.5-2.1-3.9-.4-1.5-.7-3-.6-4.6l.1-1.2c0-.4.1-.8.2-1.1.1-.8.4-1.5.6-2.2.3-.7.5-1.4.8-2s.6-1.3 1-1.9.7-1.2 1.1-1.8l1-1.9zm0 .1c-1.6 2.2-2.8 4.9-3.4 7.6-.3 1.4-.4 2.8-.4 4.2 0 1.4.2 2.7.7 4 .4 1.3 1 2.4 1.7 3.4.4.5.8.9 1.3 1.2.5.3.9.6 1.5.6 1 .2 2.1-.3 3.1-1 1-.8 1.9-1.7 2.7-2.7 1.6-2.1 2.6-4.9 3.3-7.7.4-1.4.6-2.8.7-4.3.2-1.4.2-2.9.1-4.2 0-.3-.1-.6-.2-.9-.1-.3-.2-.6-.4-.8-.3-.5-.7-1-1.1-1.4-.9-.7-1.9-1.2-3.1-1.3-.6 0-1.1.1-1.7.3-.6.2-1.1.4-1.7.7-1 .7-2.1 1.4-3.1 2.3z" fill="#e4b3ab" stroke-width="none" opacity="1"></path><path id="SvgjsPath6311" d="M144.1 93.3c-3 .5-5 5.7-5.6 9.2-.1.1-.1.2-.2.3-.3.5.4 1.1.7.6.4-.7 1-1.5 1.7-1.8 1.3-.5 2 1 1.7 2.5-.4 1.7-1.5 2.8-2.5 4.1-.1.1 0 .3.1.2 1.6-1 4-4.5 2.9-6.7-.8-1.6-2.1-1.3-3.2-.4.7-2 1.3-4 2.8-5.5.5-.5 1.4-1.3 2.1-1.2 1.2.2 1.2 2 1.3 3.1.1 1.5-.1 3.1-.3 4.7 0 .2.2.2.2.1.6-2.4 1.8-9.8-1.7-9.2z" fill="#d4958a" stroke-width="none" opacity="1"></path></g></g><g id="svga-group-faceshape-wrap"><g id="svga-group-faceshape-single"><path id="SvgjsPath5239" d="M141 85.4c-1.2-28.5-19.61-43.51-40.91-43.51S60.2 57 59 85.4c0 0-.4 25.9 5.4 37.3 14.4 28.4 35.62 26.95 35.62 26.95s21.18 1.45 35.58-26.95c5.8-11.4 5.4-37.3 5.4-37.3z" fill="#f3d4cf" stroke-width="none" opacity="1" stroke="none"></path><path id="SvgjsPath5240" d="M135.6 122.7c5.8-11.4 5.49-37.32 5.49-37.32-1.2-28.5-19.79-44.08-41.09-44.08S60.2 57 59 85.4c0 0-.4 25.9 5.4 37.3 14.4 28.4 35.6 27.5 35.6 27.5s21.2.9 35.6-27.5zm-41.7 25.17c-2-.51-4-1.31-6-2.22-3.9-1.82-7.4-4.45-10.5-7.48-1.6-1.52-3-3.14-4.4-4.85 0 0-3.2-4.45-3.9-5.36-.3-.51-.6-.91-.9-1.42-.3-.51-.6-.91-.9-1.42l-1.8-3.24s-.9-2.12-1.1-2.63-.4-1.01-.5-1.62c-.2-.51-.3-1.11-.5-1.62-.6-2.12-1.1-4.35-1.5-6.57s-.8-4.45-1-6.78c-.6-4.55-.9-9.1-1.1-13.75v-3.34l.1-1.72c0-.61.1-1.11.1-1.72.1-1.11.3-2.22.4-3.44.1-.61.2-1.11.3-1.72 0 0 .3-1.31.4-1.62 1-4.45 2.5-8.8 4.8-12.64.5-1.01 1.2-1.92 1.8-2.83l1-1.31c.3-.4.7-.91 1.1-1.31 1.4-1.72 3-3.34 4.7-4.75 3.4-2.83 7.3-4.96 11.4-6.47 4.1-1.42 8.4-2.12 12.8-2.22 2.2-.1 11 1.11 11.3 1.21 4.91 1.22 9.7 3.54 13.3 5.97.9.61 1.8 1.31 2.6 2.02l1.3 1.11 1.2 1.11c1.6 1.62 3 3.34 4.3 5.16.3.51 1.9 2.83 1.9 2.83.3.51 1.6 3.03 1.6 3.03.5 1.01.9 2.12 1.4 3.14.4 1.11.8 2.12 1.1 3.24.4 1.11.6 2.22.9 3.34.1.61.7 3.34.7 3.34l.28 1.94c.1.61.18 2.74.18 2.74l.06.93s-.01 8.78-.31 12.32-.51 6.76-1.11 10.3c-.3 1.72-.7 3.54-1.1 5.26-.4 1.72-.9 3.44-1.5 5.06s-1.2 3.24-2 4.75l-1.3 2.22c-.4.81-.9 1.52-1.4 2.22-1.9 2.93-4 5.66-6.3 8.19s-4.8 4.85-7.5 6.88c-1.4 1.01-2.8 1.92-4.2 2.73-1.5.81-3 1.52-4.5 2.12-.4.2-2 .71-2.4.81-.8.2-1.6.4-2.4.61s-6.63.63-10.9-.53z" fill="#c5796d" stroke-width="none" opacity="1" stroke="none"></path></g></g><g id="svga-group-mouth-single-move" transform="matrix(1,0,0,1,0,0)"><g id="svga-group-mouth-single"><path id="SvgjsPath5007" d="M86.9 128.6s2-.5 3.7-2.3c1.8-1.8 2.3-2.2 3.2-2.6 1-.4 3.2-1 4.9.4 1.6 1.3 2 .5 2.7 0s2-1.4 4.2-.6 4.3 3.4 5.6 4.1 2.2.9 2.2.9-1.7 2.4-3.1 3.8c-1.9 2-4.3 2.7-8.6 3-4.3.3-7.2-.5-9-1.7-1.9-1.2-3.5-3.2-3.9-3.6-.5-.5-1.9-1.4-1.9-1.4z" fill="#da7c87" stroke-width="none" opacity="1" transform="translate(0 3)" stroke="none"></path><path id="SvgjsPath5008" d="M86.2 128.6c1.8.9 3.6.8 5.5.4 1.4-.3 2.9-.6 4.3-.5s2.7.8 4.2.9c1.1 0 2-.4 3-.7 1.9-.6 3.5-.3 5.4.1 1.9.4 4 1 5.7-.2.3-.2.1-.6-.2-.6-2.7.5-4.7-.2-7.4-.6-2.4-.4-4.4 1.1-6.8.8-2-.2-3.5-1-5.5-.7-2.7.3-5.2 1.4-7.9.4-.4 0-.6.6-.3.7z" fill="#cb5f6c" stroke-width="none" opacity="1" transform="translate(0 3)" stroke="none"></path><path id="SvgjsPath5009" d="M109.8 130.3c-4.4.3-8.6 1.8-13 1.6-.2 0-.3.3-.1.4 4.3 1.1 9.6 1.4 13.2-1.8.1-.1 0-.2-.1-.2z" fill="#e99ca5" stroke-width="none" opacity="1" transform="translate(0 3)" stroke="none"></path></g></g><g id="svga-group-eyes-left-move" transform="matrix(1,0,0,1,0,-2)"><g id="svga-group-eyes-left" transform="matrix(0.9999999,0,0,0.9999999,0.000008152719871645786,0.000009802999869634732)"><g id="svga-group-eyesback-left"><path id="SvgjsPath7692" d="M91.7 99.7s-3.6 1.3-5.4 1.5-4.8.3-8.2-.1-5.6-1.1-5.6-1.1 1.3-3 4-5c2.8-1.9 6.2-2.4 9-1.6 2.7.8 4.9 3.3 5.3 4.5l.9 1.8z" fill="#ffffff" stroke-width="none" opacity="1"></path></g><g id="svga-group-eyesiriswrapper-left" transform="matrix(1,0,0,1,0,0)"><g id="svga-group-eyesiriscontrol-left" transform="matrix(1,0,0,1,0,0)"><g id="svga-group-eyesiris-left"><path id="SvgjsPath5086" d="M82 91.5c2.7 0 4.9 2.2 4.9 4.9s-2.2 4.9-4.9 4.9-4.9-2.2-4.9-4.9 2.2-4.9 4.9-4.9z" fill="#7b5c33" stroke-width="none" opacity="1" stroke="none"></path><path id="SvgjsPath5087" d="M82 93.8c1.4 0 2.6 1.2 2.6 2.6S83.4 99 82 99s-2.6-1.2-2.6-2.6 1.2-2.6 2.6-2.6z" fill="#000000" stroke-width="none" opacity="1"></path><path id="SvgjsPath5088" d="m81.3 94.3-.5-.5c-.2-.2-.4-.3-.7-.3s-.5.1-.7.3c-.2.2-.3.4-.3.7s.1.5.3.7l.5.5c.2.2.4.3.7.3.2 0 .5-.1.7-.3.4-.5.4-1 0-1.4zm2.5 4.4c.8 0 .8-1.3 0-1.3s-.9 1.3 0 1.3z" fill="#ffffff" stroke-width="none" opacity="1"></path></g></g></g><g id="svga-group-eyesfront-left"><path id="SvgjsPath7700" d="M70.7 98c0 6.9 4.9 12.5 11 12.5s11-5.6 11-12.5-4.9-12.5-11-12.5-11 5.6-11 12.5zm1.9 1.9s1.3-3 4-5c2.8-1.9 6.2-2.4 9-1.6 2.7.8 4.9 3.3 5.3 4.5.5 1.2.8 1.8.8 1.8s-3.6 1.3-5.4 1.5-4.8.3-8.2-.1c-3.3-.3-5.5-1.1-5.5-1.1z" fill="#f3d4cf" stroke-width="none" opacity="1" stroke="none"></path><path id="SvgjsPath7701" d="M92.5 99.2c-1.7-4-4.8-7.2-9.3-7.8-4.8-.6-9.3 2.5-11.2 6.8 0 .1-.2 0-.2-.1 1.8-4.4 6.3-7.3 11.1-7 4.4.3 8.8 3.6 9.6 8.1.1 0 .1 0 0 0z" fill="#e4b3ab" stroke-width="none" opacity="1" stroke="none"></path><path id="SvgjsPath7702" d="M69.6 98.6c.9 0 1.8.1 2.7.2.3-.5.6-.9.9-1.4-.9-.4-1.7-.9-2.4-1.5-.1-.1 0-.3.1-.2.9.3 1.8.8 2.6 1.3.3-.4.6-.8 1-1.1-.7-.5-1.4-1-1.9-1.7-.1-.1 0-.3.2-.2.7.4 1.4 1 2 1.6.5-.4.9-.8 1.5-1.2-.6-.7-1.1-1.4-1.7-2.1-.1-.1.1-.3.2-.2.7.6 1.3 1.3 1.8 2.1.3-.2.7-.4 1.1-.6-.3-.5-.6-1-.9-1.6-.1-.2.1-.3.2-.2.5.4.8 1 1 1.6.5-.2.9-.4 1.4-.5-.2-.6-.4-1.1-.5-1.7 0-.2.1-.4.2-.2.2.6.4 1.2.5 1.9.5-.2 1.1-.3 1.7-.3-.1-.5-.2-1-.2-1.5 0-.2.2-.2.3 0 .2.5.2 1 .2 1.5.4 0 .7-.1 1.1-.1 4.9-.1 8 2.8 9.5 7.3.1.3-.3.3-.4.1-1.7-4.4-5.2-6.9-10-6.3-3.9.4-6.8 2.8-8.5 6.1 5.7 1.3 12.6 1.9 18.2.1.1 0 .1.1 0 .2-3 1.2-5.6 1.8-8.8 1.7H82c0 .2.1.3.1.5 0 .1-.2.1-.3 0-.1-.2-.1-.4-.1-.5-.5 0-.9 0-1.4-.1 0 .2 0 .4-.1.6 0 .1-.2.1-.2 0 0-.2 0-.4.1-.6-.5 0-1-.1-1.5-.1-.1.3-.2.6-.4.9-.1.1-.3.1-.3-.1 0-.3 0-.6.1-.8-.4 0-.8-.1-1.2-.1 0 .1-.1.3-.1.4-.1.2-.2.5-.3.6-.1.1-.3 0-.3-.1 0-.3.1-.5.2-.8 0-.1.1-.2.1-.3-.5-.1-.9-.1-1.4-.2-.1.1-.2.3-.3.4-.2.2-.4.5-.6.7-.1.1-.3 0-.2-.1.1-.3.3-.6.5-.8.1-.1.1-.2.2-.3-.8-.1-1.6-.3-2.3-.5-.4-.1-.5-.5-.3-.8.1-.2.2-.3.3-.5-.9 0-1.8-.1-2.5-.4-.4.2-.4-.1-.2-.1z" fill="#a55555" stroke-width="none" opacity="1" stroke="none"></path></g></g></g><g id="svga-group-eyes-right-move" transform="matrix(1,0,0,1,0,-2)"><g id="svga-group-eyes-right" transform="matrix(0.9999999,0,0,0.9999999,0.000011847452540791892,0.000009802999869634732)"><g id="svga-group-eyesback-right"><path id="SvgjsPath7693" d="M108.3 99.7s3.6 1.3 5.4 1.5 4.8.3 8.2-.1 5.6-1.1 5.6-1.1-1.3-3-4-5c-2.8-1.9-6.2-2.4-9-1.6-2.7.8-4.9 3.3-5.3 4.5l-.9 1.8z" fill="#ffffff" stroke-width="none" opacity="1"></path></g><g id="svga-group-eyesiriswrapper-right" transform="matrix(1,0,0,1,0,0)"><g id="svga-group-eyesiriscontrol-right" transform="matrix(1,0,0,1,0,0)"><g id="svga-group-eyesiris-right"><path id="SvgjsPath5089" d="M118 91.5c2.7 0 4.9 2.2 4.9 4.9s-2.2 4.9-4.9 4.9-4.9-2.2-4.9-4.9 2.2-4.9 4.9-4.9z" fill="#7b5c33" stroke-width="none" opacity="1" stroke="none"></path><path id="SvgjsPath5090" d="M118 93.8c1.4 0 2.6 1.2 2.6 2.6S119.4 99 118 99s-2.6-1.2-2.6-2.6 1.2-2.6 2.6-2.6z" fill="#000000" stroke-width="none" opacity="1"></path><path id="SvgjsPath5091" d="m117.4 94.3-.5-.5c-.2-.2-.4-.3-.7-.3s-.5.1-.7.3c-.2.2-.3.4-.3.7s.1.5.3.7l.5.5c.2.2.4.3.7.3.2 0 .5-.1.7-.3.3-.5.4-1 0-1.4zm2.4 4.4c.8 0 .8-1.3 0-1.3s-.8 1.3 0 1.3z" fill="#ffffff" stroke-width="none" opacity="1"></path></g></g></g><g id="svga-group-eyesfront-right"><path id="SvgjsPath7703" d="M118.3 85.5c-6.1 0-11 5.6-11 12.5s4.9 12.5 11 12.5 11-5.6 11-12.5-5-12.5-11-12.5zm3.5 15.6c-3.4.4-6.4.2-8.2.1s-5.4-1.5-5.4-1.5.4-.6.8-1.8c.5-1.2 2.6-3.7 5.3-4.5 2.7-.8 6.2-.4 9 1.6 2.8 1.9 4 5 4 5s-2.1.7-5.5 1.1z" fill="#f3d4cf" stroke-width="none" opacity="1" stroke="none"></path><path id="SvgjsPath7706" d="M107.5 99.2c1.7-4 4.8-7.2 9.3-7.8 4.8-.6 9.3 2.5 11.2 6.8 0 .1.2 0 .2-.1-1.8-4.4-6.3-7.3-11.1-7-4.4.3-8.8 3.6-9.6 8.1-.1 0-.1 0 0 0z" fill="#e4b3ab" stroke-width="none" opacity="1" stroke="none"></path><path id="SvgjsPath7707" d="M130.4 98.6c-.9 0-1.8.1-2.7.2-.3-.5-.6-.9-.9-1.4.9-.4 1.7-.9 2.4-1.5.1-.1 0-.3-.1-.2-.9.3-1.8.8-2.6 1.3-.3-.4-.6-.8-1-1.1.7-.5 1.4-1 1.9-1.7.1-.1 0-.3-.2-.2-.7.4-1.4 1-2 1.6-.5-.4-.9-.8-1.5-1.2.6-.7 1.1-1.4 1.7-2.1.1-.1-.1-.3-.2-.2-.7.6-1.3 1.3-1.8 2.1-.3-.2-.7-.4-1.1-.6.3-.5.6-1 .9-1.6.1-.2-.1-.3-.2-.2-.5.4-.8 1-1 1.6-.5-.2-.9-.4-1.4-.5.2-.6.4-1.1.5-1.7 0-.2-.1-.4-.2-.2-.2.6-.4 1.2-.5 1.9-.5-.2-1.1-.3-1.7-.3.1-.5.2-1 .2-1.5 0-.2-.2-.2-.3 0-.2.5-.2 1-.2 1.5-.4 0-.7-.1-1.1-.1-4.9-.1-8 2.8-9.5 7.3-.1.3.3.3.4.1 1.7-4.4 5.2-6.9 10-6.3 3.9.4 6.8 2.8 8.5 6.1-5.7 1.3-12.6 1.9-18.2.1-.1 0-.1.1 0 .2 3 1.2 5.6 1.8 8.8 1.7h.7c0 .2-.1.3-.1.5 0 .1.2.1.3 0 .1-.2.1-.4.1-.5.5 0 .9 0 1.4-.1 0 .2 0 .4.1.6 0 .1.2.1.2 0 0-.2 0-.4-.1-.6.5 0 1-.1 1.5-.1.1.3.2.6.4.9.1.1.3.1.3-.1 0-.3 0-.6-.1-.8.4 0 .8-.1 1.2-.1 0 .1.1.3.1.4.1.2.2.5.3.6.1.1.3 0 .3-.1 0-.3-.1-.5-.2-.8 0-.1-.1-.2-.1-.3.5-.1.9-.1 1.4-.2.1.1.2.3.3.4.2.2.4.5.6.7.1.1.3 0 .2-.1-.1-.3-.3-.6-.5-.8-.1-.1-.1-.2-.2-.3.8-.1 1.6-.3 2.3-.5.4-.1.5-.5.3-.8-.1-.2-.2-.3-.3-.5.9 0 1.8-.1 2.5-.4.4.2.4-.1.2-.1z" fill="#a55555" stroke-width="none" opacity="1" stroke="none"></path></g></g></g><g id="svga-group-facehighlight-single"></g><g id="svga-group-eyebrows-left-move" transform="matrix(1,0,0,1,0,1)"><g id="svga-group-eyebrows-left-rotate" transform="matrix(1,1.7453292144864463e-9,-1.7453292144864463e-9,1,1.5003287501258455e-7,-1.402671330197336e-7)"><g id="svga-group-eyebrows-left"><path id="SvgjsPath8201" d="M72.9 84.2c.1-.2.4-.3.6-.4.2-.1.4-.2.6-.2.4-.2.8-.4 1.2-.5.5-.1 1.2-.5 1.7-.2 1.6-.6 3.7-.2 5.1.6 1.9.2 3.9.8 5.3 1.8.1.1.2.2.2.3.3.1.5.2.8.3 1 .4 2.1.7 3.1 1.2.1 0 .2.1.3.1.3.1.4.7.2.8-.1.1-.1.2-.2.3-.8.6-1.8.2-2.6-.1-.7-.3-1.5-.6-2-1.2-.8-.3-1.4-.7-2.1-1.1-.1 0-.2-.1-.3-.1-1.2-.2-2.5-.7-3.7-1.3-.7-.1-1.3-.3-2-.3-.9-.1-1.8.2-2.8-.1h-.1c-.2.1-.4.1-.6.2-.8.2-1.5.4-2.3.4-.1 0-.2-.1-.2-.2H73s-.2-.1-.1-.3z" fill="#2a232b" stroke-width="none" opacity="1"></path><path id="SvgjsPath8202" d="M77.4 82.3c3.1-.2 6.2 1.5 9 2.6 1.7.7 5.2.9 5.9 3 .1.3-.3.4-.5.2-.9-1.2-2.4-1.4-3.8-1.8-1.2-.4-2.3-.8-3.5-1.3-2.4-1-4.8-1.6-7.3-2.2-.1-.1 0-.4.2-.5z" fill="#3a353a" stroke-width="none" opacity="1"></path><path id="SvgjsPath8203" d="M93.3 87.9c.3-1.4-1.8-1.9-2.8-2.3-2.4-1-4.9-2.1-7.4-2.8-1.5-.4-3.1-.7-4.6-.7-1.2 0-2.3.1-3.5.5-2 .6-3.9 1.8-5.6 3.1-.9.5-1.8 1.2-2.5 1.9-.1.1 0 .3.2.2 0 0 .1 0 .1-.1 0 .1.1.1.2.1 1.5-.7 2.8-1.6 4.3-2.2 1.5-.6 3.1-1 4.7-1.1h.7c1.9 0 3.7.4 5.4 1.2 2.4 1.1 4.6 2.6 7 3.5.4.2.9.2 1.4.2 1.1 0 2.2-.4 2.4-1.5zM78.5 83c1.6 0 3.2.4 4.8.9 2 .7 4 1.6 6 2.4.4.2 2.4.7 2.6 1.2.2.6-.2.8-.8.9-.3 0-.6-.1-.8-.1-.6-.2-1.2-.6-1.7-.9-3.1-1.6-6.3-3.5-9.8-3.7h-1c-1.1 0-2.3.1-3.5.3.5-.2 1-.4 1.6-.6.8-.3 1.7-.4 2.6-.4z" fill="#1b141c" stroke-width="none" opacity="1"></path></g></g></g><g id="svga-group-eyebrows-right-move" transform="matrix(1,0,0,1,0,1)"><g id="svga-group-eyebrows-right-rotate" transform="matrix(1,1.7453292144864463e-9,-1.7453292144864463e-9,1,1.5032446754048578e-7,-2.0871139838618546e-7)"><g id="svga-group-eyebrows-right"><path id="SvgjsPath8204" d="M127.1 84.2c-.1-.2-.4-.3-.6-.4-.2-.1-.4-.2-.6-.2-.4-.2-.8-.4-1.2-.5-.5-.1-1.2-.5-1.7-.2-1.6-.6-3.7-.2-5.1.6-1.9.2-3.9.8-5.3 1.8-.1.1-.2.2-.2.3-.3.1-.5.2-.8.3-1 .4-2.1.7-3.1 1.2-.1 0-.2.1-.3.1-.3.1-.4.7-.2.8.1.1.1.2.2.3.8.6 1.8.2 2.6-.1.7-.3 1.5-.6 2-1.2.8-.3 1.4-.7 2.1-1.1.1 0 .2-.1.3-.1 1.2-.2 2.5-.7 3.7-1.3.7-.1 1.3-.3 2-.3.9-.1 1.8.2 2.8-.1h.1c.2.1.4.1.6.2.8.2 1.5.4 2.3.4.1 0 .2-.1.2-.2h.1s.2-.1.1-.3z" fill="#2a232b" stroke-width="none" opacity="1"></path><path id="SvgjsPath8205" d="M122.6 82.3c-3.1-.2-6.2 1.5-9 2.6-1.7.7-5.2.9-5.9 3-.1.3.3.4.5.2.9-1.2 2.4-1.4 3.8-1.8 1.2-.4 2.3-.8 3.5-1.3 2.4-1 4.8-1.6 7.3-2.2.1-.1 0-.4-.2-.5z" fill="#3a353a" stroke-width="none" opacity="1"></path><path id="SvgjsPath8206" d="M109 89.3c.5 0 1-.1 1.4-.2 2.4-.9 4.7-2.4 7-3.5 1.8-.8 3.6-1.2 5.4-1.2h.7c1.6.1 3.2.5 4.6 1.1 1.5.6 2.9 1.6 4.3 2.2.1 0 .2 0 .2-.1 0 0 .1 0 .1.1.2.1.3-.1.2-.2-.7-.7-1.6-1.4-2.5-1.9-1.7-1.3-3.6-2.4-5.6-3.1-1.1-.4-2.3-.5-3.5-.5-1.6 0-3.1.3-4.6.7-2.5.7-5 1.8-7.4 2.8-.9.4-3.1.9-2.8 2.3.4 1.2 1.5 1.6 2.5 1.5zm15.2-5.9c.5.2 1.1.3 1.6.6-1.2-.2-2.3-.3-3.5-.3h-1c-3.5.2-6.8 2.2-9.8 3.7-.6.3-1.1.7-1.7.9-.2.1-.5.1-.8.1-.5 0-1-.2-.8-.9.2-.5 2.2-1 2.6-1.2 2-.8 4-1.7 6-2.4 1.6-.5 3.2-.9 4.8-.9.8 0 1.7.1 2.6.4z" fill="#1b141c" stroke-width="none" opacity="1"></path></g></g></g><g id="svga-group-nose-single-move" transform="matrix(1,0,0,1,0,0)"><g id="svga-group-nose-single"><path id="SvgjsPath5616" d="M104.93 107.57c-.14-.18-.45.05-.32.25.84 1.29 1.76 2.56 2.54 3.89.53.9 1.07 2.03.7 3.12-.61 1.79-2.18 1.68-3.45 1 .48-.61.75-1.33.69-2.12-.02-.19-.29-.37-.44-.18-1.26 1.59-2.06 3.25-4.41 3.34-2.48.1-4.08-1.91-4.73-4.07-.06-.19-.32-.14-.33.04-.07.99.25 1.95.79 2.76-.36.07-.73.14-1.09.16-1.15.07-1.34-.02-2.11-.98-.8-1.01-.81-1.27-.36-2.39.21-.53.52-.98.82-1.45.97-1.52 1.84-3.06 2.48-4.75 1.29-3.37 1.85-7.09 1.22-10.66-.03-.15-.26-.11-.27.04-.01 2.89-.19 5.74-1.04 8.52-.88 2.88-2.54 5.04-3.92 7.64-.72 1.35-1.02 3.12.21 4.28 1.22 1.15 3.1.78 4.52.24.85.92 2.02 1.56 3.26 1.67 1.4.12 3.23-.55 4.36-1.7 1.31 1.45 3.82.78 4.47-1.08 1.01-2.82-2.06-5.64-3.59-7.57z" fill="#c5796d" stroke-width="none" opacity="1" transform="translate(0 2)" stroke="none"></path><path id="SvgjsPath5617" d="M102 110.13c-.8-.75-2.07-.97-2.97-.27-.33.25-.52.57-.61.9-.16.05-.3.14-.44.27-.68.67-.39 1.71.19 2.34.5.53 1.31.78 2.02.75.88-.05 1.67-.46 2.16-1.2.57-.86.4-2.09-.35-2.79z" fill="#fbe5e2" stroke-width="none" opacity="1" transform="translate(0 2)" stroke="none"></path></g></g><g id="svga-group-hair-front"><path id="SvgjsPath10842" d="M134.7 56.4c-10.9-18.1-34.8-16.7-34.8-16.7S76 38.3 65 56.4C54.8 73.4 57 88 57 88s2.2 2.2 3.5 10.2c0 .3.2.4.4.5 0 .1 0 .3.1.4 0 .1.1.2.2.3.1.2.2.4.4.6.2.4.8.1.6-.3l-.3-.6v-.5h.2c0 .1.1.2.1.2.2.3.6.1.5-.2-.1-.4-.2-.7-.3-1.1v-.4c.2.3.6.1.5-.2 0-.2-.1-.3-.1-.4.1-.1.1-.1.1-.2v-.8c0 .1.1.1.1.2.2.2.6.1.5-.2l-.3-.9V93.8c.2.2.5 0 .4-.2 0-.2-.1-.5-.2-.7v-.3c.2.1.5-.1.4-.4-.1-.3-.2-.7-.3-1 0 0 0-.1.1-.1v.1c.1.3.5.2.5-.1-.1-.4-.2-.7-.4-1v-.4h.1c0 .2.1.4.1.6 0 .2.3.1.3-.1s-.1-.4-.1-.6c.1.1.3 0 .3-.2 0-.3-.1-.5-.1-.8v-.4c.1 0 .2-.1.2-.2 0-.3-.1-.7-.1-1h.1c0 .1.1.1.1.2.2.4.7.1.6-.3-.1-.5-.1-1.1-.2-1.7.2.1.4.1.4-.2.1-.3 0-.5 0-.8v-.4s0 .1.1.1c.1.2.4.1.4-.2-.1-.4-.1-.8-.2-1.2v.1c.1.3.6.2.5-.1 0-.2-.1-.4-.1-.6v-.7c.1 0 .3-.1.2-.3-.1-.3-.2-.6-.2-.8V80c0 .1 0 .1.1.2.2.5.8.3.7-.2 0-.2 0-.3-.1-.5.2.1.5-.1.5-.3.1-.1.2-.2.2-.3v-.1c.2.1.5-.2.4-.4-.1-.2-.2-.5-.3-.8.2 0 .4-.2.4-.4 0-.3-.1-.6-.1-.9.1.2.2.4.3.5.2.3.8.1.6-.3-.1-.2-.1-.5-.2-.7l.1.1c.3.2.7 0 .6-.4 0-.2-.1-.3-.2-.4.1.1.1.2.2.2.3.4 1 .1.7-.4l-.3-.6c.1 0 .2-.1.2-.2v-.2c.1.2.2.3.3.5.2.4.8.1.6-.3-.2-.3-.3-.7-.4-1 .2.1.4 0 .4-.3v-.2c.2.2.6 0 .5-.3-.1-.4-.1-.8-.2-1.2.2.4.4.7.6 1.1.2.3.8.1.7-.3-.1-.4-.2-.8-.4-1.1.2.3.7 0 .6-.4-.1-.4-.2-.8-.2-1.2l.2-.2c.1.4.2.8.4 1.3s.9.3.8-.2l-.3-1.5c.2.4.9.2.8-.2-.1-.3-.1-.5-.2-.8 0 .2.1.3.1.5.1.4.9.4.8-.1 0-.4-.1-.8-.1-1.2l.1-.1c.1.3.1.5.2.8.1.4.8.3.8-.1v-1.5s.1 0 .1-.1c0 .1.1.3.1.4.2.5.8.3.7-.2v-.3s0 .1.1.1c.1.4.2.9.3 1.3.1.4.7.2.6-.2 0-.1-.1-.3-.1-.4.2 0 .4-.1.4-.3 0-.3-.1-.7-.1-1 .2.2.8.1.7-.3 0-.4 0-.7.1-1.1h.1v.5c0 .5.7.6.8.1l.3-1.2v.6c0 .4.7.6.8.1 0-.1.1-.2.1-.4.2 0 .4 0 .4-.3.1-.3.2-.7.4-1 .1 0 .1-.1.2-.1v.7c0 .2.3.4.5.4v.1c.1.5.8.3.7-.2-.1-.4-.2-.8-.2-1.1 0-.1.1-.2.1-.3h.1c0 .2 0 .4.1.6.1.4.7.3.8 0 0-.1.1-.2.1-.4.2.3.7.3.8-.1v-.1c.1.3.2.7.3 1 .1.3.6.2.5-.1-.1-.2-.1-.4-.1-.6.1-.1.2-.2.2-.3v-.1.2c.1.3.3.3.5.1 0 .1.1.1.1.2.1.2.4.2.5 0 .1.2.5.2.6-.1s.1-.5.1-.8v-.1c.1.2.1.3.2.5.1.1.2.2.3.1.1.1.1.2.2.3.2.3.6 0 .4-.3-.1-.2-.2-.5-.2-.7.2.2.5 0 .6-.2.1-.3.1-.6 0-.9h.2c0 .3.1.6.1.8.1.5.8.5.8 0 .2.1.5.1.6-.2v-.3c.1.3.2.6.4.9.2.3.8.1.6-.3-.1-.2-.1-.4-.2-.7 0-.2 0-.3.1-.5.1.4.3.7.4 1s.7.1.6-.2v-.1c.1 0 .2-.2.2-.3v-.5h.1v.5c0 .5.7.5.8.1-.1.4.5.6.7.2l.3-.9h.1v.9c0 .5.8.5.8 0 0-.3.1-.6.1-.9h.1c.1.5.2.9.3 1.4.1.4.7.3.7-.1.2 0 .4 0 .4-.3v-.1c0 .2 0 .4.1.6 0 .5.9.5.8 0v-.4c.1 0 .2-.1.3-.3 0-.1.1-.2.1-.3 0 .2.1.3.1.5.1.3.3.3.5.2 0 .2-.1.4-.1.6-.2.5.5.6.7.2.2-.5.5-1.1.6-1.7.1.2.1.3.2.5-.1.3-.2.5-.3.8-.1.3.4.5.6.2.1-.2.2-.5.4-.8.2.1.5 0 .5-.2.1.1.3 0 .4 0 .1.2.2.2.4.1v.1c-.1.4.4.6.6.4v.3c0 .3.4.4.5.1 0-.1 0-.2.1-.3.1.2.4.3.6.2.1 0 .2-.1.2-.2.2-.5.4-.9.5-1.4h.3c-.1.4-.1.8-.2 1.2-.1.5.6.7.8.2.1-.2.1-.4.2-.6h.1v.3c0 .3.5.3.5 0v.2c0 .4.6.5.7.1v-.2c.1.2.5.2.6-.1.1-.1.1-.2.1-.4.1 0 .3-.1.3-.2s.1-.1.1-.2c0 .3-.1.6-.1 1s.6.5.7.2c.1-.2.2-.4.2-.7-.1.2-.1.5-.2.7-.1.2.2.4.4.3.1.3.5.4.7.1 0-.1.1-.1.1-.2.1.2.3.2.5.1l.1-.1c0 .2.3.4.5.4.1.2.3.3.5.1l.4-.4c.1 0 .2-.1.2-.2V61l.3-.3c-.1.1-.1.2-.2.3-.1.1-.2.2-.2.3-.2.2.1.6.3.4.1-.1.2-.1.2-.2.1 0 .2-.1.3-.2h.1c.1.2.3.2.4.1l-.2.2c-.3.2.1.8.4.5.1-.1.2-.2.3-.2-.3.4.2.9.5.5.1 0 .1-.1.1-.2v.1c-.1.3.4.5.5.2.1-.2.2-.5.3-.7h.1c-.1.3-.2.5-.3.8-.2.3.3.6.5.4-.2.3.2.6.5.4.1-.1.1-.2.2-.3-.1.3.3.6.6.3.1-.1.2-.3.4-.4-.1.1-.1.2-.1.2-.2.2.1.5.4.5-.2.4.2.8.6.5l.6-.6.1.1c-.2.2-.4.4-.7.6-.4.2-.1.8.3.6.1-.1.2-.1.4-.2-.1.2-.2.3-.3.5-.2.3.2.6.5.3.1-.1.2-.2.2-.3.1.2.3.3.5.2.1-.1.2-.2.3-.2-.1.1-.2.3-.3.4-.3.4.2.9.6.6-.1.2.2.5.5.4.1-.1.3-.2.4-.3-.1.2.1.5.4.4v.3c0 .3.4.3.5 0 .1.1.2.2.4.2v.1c0 .1-.1.1-.1.2-.1.2.1.4.2.4.1.1.4.1.4-.2v-.1c.1-.1.2-.3.3-.4l.1.1c-.1.2-.2.5-.2.7-.1.3.2.5.4.4v.1c-.2.4.4.8.7.4 0-.1.1-.1.1-.2l-.3 1.5c-.1.3.3.4.4.1.1-.2.1-.3.2-.5.1.1.3.1.4 0-.2.3 0 .7.4.6-.1.2-.1.4-.2.6-.1.3.3.4.4.1 0-.1.1-.2.1-.3.1.1.3.1.4-.1v.2l-.1.1c-.2.1-.1.3 0 .5 0 .2.2.2.3.2.1 0 .1 0 .2-.1.2-.1.3-.2.5-.4-.1.1-.2.2-.2.3-.1.1-.1.3 0 .5-.1.2-.1.5-.2.7-.1.2.2.3.3.1.2-.3.3-.6.5-.9l.2-.2.1.1c-.1.2-.3.4-.4.6-.3.3.1.8.4.6.1 0 .1-.1.2-.2-.1.2-.1.4-.2.6-.1.4.4.5.6.3-.1.2-.1.5-.1.7 0 .1 0 .2.1.3-.2.4.5.8.8.4.1-.1.1-.2.2-.2-.1.1-.2.3-.2.4-.1.2.1.5.3.6 0 .1-.1.1-.1.2-.2.4.3.8.6.5.1 0 .1.1.2.1v.1c0 .1-.1.1-.1.1-.3.3.1.8.5.6l.2.2-.1.1c-.2.3.1.6.4.5 0 .1.1.1.2.1 0 0 0 .1-.1.1-.1.2 0 .3.1.4-.1.1 0 .2.1.3-.1.2-.2.3-.3.5-.2.3.1.5.4.4-.1.1-.1.2-.2.3-.2.4.3.7.5.4h.2s0 .1-.1.1c-.2.3 0 .6.3.7-.1.2-.2.3-.3.5-.3.4.3.8.6.5.1-.2.3-.3.4-.5 0 .1 0 .1.1.2-.2.2-.3.4-.5.6-.2.2-.1.6.2.6-.1.2 0 .5.3.5-.2.3.1.8.4.7.1 0 .1-.1.2-.1-.3.4-.4 1-.6 1.4-.1.3.3.4.5.2.1-.2.2-.3.3-.5 0 .1.1.2.1.3-.2.4-.4.7-.5 1.1s.3.6.5.3c.1-.1.2-.3.3-.4-.2.3-.4.7-.6 1-.2.4.3.9.6.5 0 0 0-.1.1-.1-.2.2-.3.4-.5.6-.3.3.1.8.4.7-.1.2-.3.4-.4.7-.2.3.1.5.3.5-.1.3.4.5.6.2.1-.1.2-.2.3-.4-.1.3-.3.6-.4.9-.1.3.2.5.4.4l-.6 1.2c-.1.2.3.4.4.2 0 0 0-.1.1-.1.1.1.2.1.4 0l-.6 1.2c-.2.3.2.6.4.4 0 0 0 .1-.1.1-.1.2 0 .4.2.4v.1c-.1.2.1.4.2.4-.1.3-.1.6-.2.8-.1.3.2.4.4.3h.1c0 .2-.1.5-.1.8 0 .2.3.3.4.2l.1.1c-.1.2-.2.4-.4.6-.1.2.2.5.4.3l.2-.2v.2c-.1.2-.2.4-.3.5-.2.4.4.8.6.4.2-.3.4-.7.6-1.1-.1.5-.2 1-.2 1.5-.1.4.6.4.6.1.1-.4.3-.9.4-1.4.6-1.8 1.3-4 1.2-5.9 1.2-3.7 2.4-4.7 2.4-4.7s2.7-15.1-7.5-32z" fill="#2a232b" stroke-width="none" opacity="1"></path><path id="SvgjsPath10843" d="M61.6 86.9c-.1-.1-.3-.1-.3.1.5 1.4 1.5 2.7 2.9 3.3.2.1.4-.2.2-.4-1-.9-2-1.8-2.8-3zm-.4-3.3c-.2-.3-.4-.7-.6-1.1.6.7 1.3 1.4 2.1 2 .2.1.3-.1.2-.2-1.2-1.3-2.3-2.5-3.3-3.9-.2-.4-.5-.9-.8-1.3l-.1-.1c-.2-.2-.3-.4-.4-.7-.1-.2-.4 0-.3.2.2.4.4.8.7 1.2.3 1.5 1.2 3 2 4.2.4.7.9 1.4 1.4 2.1-1.4-1.2-2.7-2.5-3.8-4.1-.1-.1-.3-.1-.3 0-.1 0-.2.1-.2.2 0 3.6 3.2 7.4 5.7 9.7.2.1.5-.1.3-.2-1-1.5-2.3-2.8-3.3-4.3-1-1.4-1.5-2.9-2-4.5 1.1 1.5 2.5 3 4.1 4h.2c.5.6 1 1.1 1.5 1.6.2.2.5-.1.3-.3-1.2-1.4-2.4-2.9-3.4-4.5zm-.2 9.8c.2.3.5.6.7.8.2.2.7-.1.5-.4-1-1.6-2.1-3.1-2.9-4.8-.9-1.8-1.6-3.8-2.1-5.8-.1-.2-.4-.2-.4.1.4 2.9 1.4 6 3.1 8.6-.1-.2-.2-.3-.3-.5-.2-.2-.5 0-.4.2.9 1.7 1.9 3.6 3.4 4.7.2.1.4-.1.3-.3-.5-.9-1.2-1.7-1.9-2.6zm.7-15.3c-1.2-1.6-2-3.4-2.7-5.3-.1-.2-.4-.1-.3.1.8 3.7 3.3 8.3 7 9.8.2.1.3-.2.2-.4-1.5-1.5-3.1-2.6-4.2-4.2zm1.4-2.3c-.1-.1-.1-.2-.2-.3-.3-.5-.6-1.1-.9-1.6-.6-1.2-1.1-2.4-1.6-3.7-.1-.2-.3-.2-.4-.1-.1-.1-.1-.3-.2-.4-.1-.2-.4 0-.3.2.2.5.5 1.1.7 1.6.9 3.5 3.5 7.7 6.6 9.2.2.1.4-.2.3-.3-1.3-1.6-2.9-2.9-4-4.6zm4 1.1c-.2-.3-.4-.7-.7-1-.1-.1-.3 0-.2.1.3.8 1 1.5 1.6 2.1.1.1.3-.1.2-.2-.3-.3-.6-.6-.9-1zM62.3 66c-.1-.2-.4-.2-.4.1.8 4.1 3 8.1 6.6 10.4.2.1.3-.2.2-.3-3.5-2.6-4.9-6.4-6.4-10.2zm7.2 8.5c-1.8-2.9-2.8-6.1-4.1-9.3-.1-.2-.3-.2-.3-.1-.7-1.6-1.4-3.1-1.9-4.8 0-.2-.3-.1-.3 0 .2 2.3 1.1 4.9 2.6 6.8.8 3 2 6.1 4 8.4.2.2.5 0 .4-.3-.1-.4-.1-.3-.4-.7zm-2.1-10.8c-.8-2-1.3-4.2-2-6.2-.1-.2-.4-.1-.4.1.7 4.3 2 9.6 5.2 12.8.2.2.6-.1.4-.3-1.2-2.1-2.4-4.1-3.2-6.4zm2.8-1.9c-.1-.2-.3-.1-.3 0 .1 2.8 1.5 5.8 3.5 7.7.2.2.5-.1.3-.3-1.5-2.3-2.5-4.7-3.5-7.4zm3.3.6c-.1-.2-.5-.2-.4.1.2 1.5.8 3.1 1.4 4.5.1.3.7.2.5-.1-.5-1.5-.9-3-1.5-4.5zm3.8-13.9c0-.1 0-.1 0 0 0-.1.1-.1.1-.2.2-1.3.5-2.6 1.2-3.8.1-.2-.2-.3-.3-.2-.8 1.2-1.3 2.5-1.2 3.9-.1 0-.2 0-.2.1-1.5 5.3-.8 10.8 1.4 15.8.1.2.4.1.3-.2-1.7-5-1.9-10.1-1.3-15.4zm3 9.4c-.1 2 0 4.1.4 6 .1.3.4.2.5-.1.1-1.9-.1-4.1-.4-6 0-.3-.5-.2-.5.1zm2.7.4c-.1-2 .1-4 .3-6 0-.2-.2-.2-.2-.1-.7 2.6-.7 5.3-.3 8 0 1 .1 2 .3 3 0 .2.3.1.3 0 .1-1.5.1-3.1 0-4.6 0-.3-.2-.3-.4-.3zm8.2-16.8c-1.3 2.2-2.2 4.8-2.7 7.3.1-1 .3-2 .4-3.1 0-.2-.3-.4-.4-.1-1.6 5.3-1.8 11.1-.9 16.5 0 .2.4.2.4 0-.2-3.2-.2-6.3.1-9.4 0 .9 0 1.7.1 2.6 0 .2.3.2.3 0 .2-4.9 1.1-9.1 3-13.6.2-.2-.2-.5-.3-.2zm.7 11.4c-.7 2.5-1 5.1-1.2 7.6 0 .3.5.4.5.1.4-2.5.9-5.1 1.1-7.6.1-.3-.3-.4-.4-.1zm2.1 3.2c-.5 1.3-.9 2.8-.9 4.2 0 .3.3.3.4.1.5-1.3.7-2.8.9-4.2-.1-.3-.4-.3-.4-.1zm2 .8c-.3 1-.2 2.1-.2 3.1 0 .2.4.2.4 0 0-1 .1-2 .1-3 0-.3-.3-.3-.3-.1zm1.3-13.6c0 5.8-.1 11.7.4 17.5 0 .2.3.2.3 0 .7-5.7.3-11.8-.4-17.5 0-.2-.3-.2-.3 0zm3.8.6c0-1-.1-2-.2-2.9 0-.1-.1-.1-.1 0-.1 1.6-.3 3.2-.1 4.8 0 .1.2.1.2 0 0-.2 0-.4.1-.5.2 5-.1 10-.1 15.1 0 .3.4.3.5 0 .7-5.4.4-10.9-.1-16.3 0-.2-.1-.2-.2-.2zm3.4 11.6c.6-3.7.6-7.4.3-11.2 0-.1-.2-.1-.2 0 .1 3.7-.1 7.4-.3 11.1-.1.2.1.3.2.1zm2.6-9.2c.1 3.2-.2 6.4-.4 9.7 0 .2.4.3.4.1.5-3.2.5-6.5.3-9.7 0-.3-.3-.3-.3-.1zm3.2 1.4c-.7 4.3-1.6 8.5-2.1 12.8 0 .3.3.3.4.1 1.6-3.9 2.2-8.6 2.2-12.8 0-.3-.5-.4-.5-.1zm2.4 1.5c0-.2-.4-.3-.4 0-.3 2.3-.6 4.5-1.1 6.8-.4 1.8-1.2 3.6-1.2 5.5 0 .3.4.3.4 0 .3-2.2 1.3-4.3 1.7-6.6.4-1.9.6-3.8.6-5.7zm.5 8.3c-.4 1.3-.6 2.6-1.1 3.8-.1.2.3.4.4.2.7-1.1 1.2-2.6 1.1-4 0-.2-.4-.3-.4 0zm2.4-2.2c-.6 2-1 4.1-1.5 6.1-.1.2.2.3.3.1.6-2 1.2-4 1.5-6.1 0-.2-.2-.3-.3-.1zm.8 5.9c1.9-4 2.9-8.4 3.1-12.8.1 0 .2 0 .2-.2.1-1.4-.2-2.8-.3-4.2 0-.3-.4-.3-.4 0 0 6-1.1 11.4-3 17 0 .3.3.5.4.2zm4.1-4.1c.7-2.3 1.1-4.7 1.2-7.1.1 0 .2 0 .2-.2.4-1.6.2-3.3 0-4.9 0-.2-.3-.1-.3 0 0 1.6-.2 3.2-.1 4.8 0 .1 0 .1.1.2-.3 2.4-.7 4.8-1.3 7.2-.1.1.1.1.2 0zm1.3-.5c-.8 2.5-1.8 4.9-3.2 7.2-.1.2.1.3.3.2 1.8-2.1 2.9-4.6 3.3-7.4 0-.2-.4-.2-.4 0zm1.2 1.8c-1.1 2.2-2.2 4.3-3.4 6.4-.1.2.2.4.3.2 1.6-1.7 3-4.1 3.6-6.4 0-.3-.4-.5-.5-.2zm3.6-3.5c-.4 2.2-.9 4.3-1.8 6.3-.8 1.8-2.1 3.3-3.2 5-.2.2.2.4.3.3 3.2-2.7 5.1-7.4 5.2-11.5 0-.3-.4-.4-.5-.1zm2.1 4.9c.1-.2-.3-.4-.4-.2-.3.5-.6 1.1-.9 1.6l-.1.1c0 .1-.1.1-.1.2-1 1.8-2.1 3.6-3.6 5.2-.2.2.1.6.3.3.1-.1.2-.2.3-.4-.1.2.1.3.3.2 1.1-1.2 2-2.5 2.6-4 .8-1 1.3-2 1.6-3zm-.6 7.1c2.8-3.6 4.5-7.9 4.6-12.5 0-.2-.3-.2-.3 0-.8 4.4-2.2 8.4-4.6 12.3-.1.1.1.3.3.2zm2.2.1c.1-.2-.2-.4-.3-.3-.6.6-1.1 1.3-1.7 2-.5.6-1.1 1.2-1.5 1.9-.1.2.1.5.3.3.7-.5 1.2-1.2 1.7-1.8.6-.7 1.1-1.3 1.5-2.1zm-3.1 1.8c.2-.2.3-.5.5-.8.1-.2-.2-.4-.3-.2-.3.3-.5.6-.8.9-.2.2-.5.6-.5.9 0 .3.4.5.6.2v-.2c.1-.4.4-.6.5-.8zm-.4-1.9c-.6.4-1.1 1-1.5 1.6-.2.2.2.5.4.3.5-.5 1-1 1.3-1.7.1-.1 0-.3-.2-.2zm7 .7c.1-.2-.2-.5-.4-.3-.9.9-1.6 1.9-2.5 2.8-.9.9-1.8 1.7-2.7 2.6-.2.2.1.5.3.4 2-1.4 4.1-3.4 5.3-5.5zm.6 1.3c.1-.2-.2-.4-.4-.3-1.7 1.6-3.2 3.4-4.9 5.1-.1.1.1.4.2.3 1.9-1.4 3.9-3.1 5.1-5.1zm-1.3 4.9c.1.1.2.2.3.1 1.9-2.1 3.3-4.6 4.4-7.2.1-.2-.3-.4-.4-.2-1.1 2.4-2.5 4.5-3.9 6.6 0 0 0-.1.1-.1.1-.3-.3-.4-.4-.3-.5.5-.9 1.1-1.4 1.6-.6.5-1.2 1-1.8 1.4-.3.2 0 .6.3.4.9-.4 2.1-1.2 2.8-2.3zm1.4.7c.1-.2-.2-.4-.3-.3-1.1 1.1-2.1 2.4-3.2 3.6-.2.2.1.6.4.4 1.1-1 2.4-2.3 3.1-3.7zm5.4-2c0-.1 0-.1 0 0 .2-.7.4-1.3.6-2 0-.2-.2-.2-.2-.1-.9 2.2-1.9 4.3-3.1 6.3v.1c-.9 1.4-2 2.7-3.3 3.9-.1.1.1.4.2.3 2.8-2 5.1-5 5.8-8.5zm-2.9 7.8c-1 1-2 2.1-2.9 3.1-.2.2.1.5.3.3 1.5-1.4 3.2-2.8 4.5-4.4.1-.2-.1-.6-.3-.4-.2.2-.4.3-.6.5 1.6-1.8 2.6-4.2 3.1-6.5.1-.3-.3-.4-.4-.1-.9 2.6-2.3 4.9-3.9 7.2-.1.1 0 .2.2.3zm1.9 1c.1-.1 0-.2-.1-.3 1.4-1.6 2.2-3.9 2.5-6 0-.2-.3-.4-.4-.1-.5 2.1-1.5 3.9-2.5 5.8-.1.1 0 .2.1.3-1.5 1.3-2.8 2.8-4.5 4-.2.2 0 .5.2.3 1.8-1 3.6-2.3 4.7-4zm2.7 2.1c-.7 1.1-1.5 2.1-2.3 3.2-1.2.9-2.2 1.9-3.6 2.7-.2.1 0 .4.2.3.6-.3 1.3-.6 1.9-1l-.1.1c-.1.1.1.3.2.2 1.6-1.5 3-3.3 4.1-5.2.1-.3-.2-.5-.4-.3zm-3.2 6.8c.1-.2-.1-.4-.3-.3-.5.2-.9.6-1.3.9-.4.3-.9.6-1.3.9-.1.1-.1.4.1.3.9-.4 2.2-.9 2.8-1.8zm2 0c.1-.2-.2-.3-.3-.2-1.3 1.6-2.6 3.1-4.4 4.1-.2.2 0 .5.2.4 2-.7 3.7-2.3 4.5-4.3zm2-3.8c0-.2-.3-.3-.4-.1-.5 2-1.1 4-2.1 5.8-.9 1.7-2.3 2.9-3.4 4.4-.1.2.1.4.3.3 3.4-1.9 5.5-6.7 5.6-10.4zM73.9 62.3c-1.4-4.7-1.7-8.9-1-13.7 0-.2-.3-.3-.4-.1-1.5 4.5-1.1 9.7 1.1 13.9.2.1.4.1.3-.1zm8-17.7c-2.7 4.4-2.7 9.6-2 14.6 0 .2.4.2.4 0-.1-5-.4-9.8 2-14.4.1-.2-.3-.5-.4-.2zm-2.1 4.3c.1-.3-.3-.4-.4-.1-1.3 4.4-1.8 9.5-.2 13.9.1.2.5.2.4-.1-.4-4.8-.8-8.9.2-13.7zm-2.7 15.9c-.8-2.8-1.2-5.7-1.3-8.7 0-.1-.2-.2-.2-.1-.3-2.8-.4-5.6-.3-8.5 0-.3-.4-.3-.4 0-.4 3.5-.2 7 .6 10.5.1 2.5.5 5 1.2 7.4.1.2.4.3.5.1.1-.2.2-.3.2-.5s-.2-.3-.3-.2zm-2.6-5.3c.1 2.6.6 5.2 1.4 7.6.1.3.5.2.4-.1-.6-2.5-.9-5-1.4-7.6-.1-.2-.4-.2-.4.1zm57.1 6.9c-.4.5-.7 1.1-1.1 1.6-.4.6-.9 1.1-1.4 1.6-.2.2.1.4.3.3l.3-.3c.1.1.1.1.2 0 3.1-2 4.4-6 5.6-9.3.1-.2-.3-.3-.4-.1-.9 2.3-2 4.3-3.3 6.3.1-.2-.2-.2-.2-.1zm5.2 5.6c-1.3 2.6-2.7 5-4.6 7.2-.2.2.1.5.3.3 2.1-2.1 3.8-4.6 4.6-7.4.1-.2-.2-.3-.3-.1zm-4.5.7c2.4-2.1 3.9-4.8 4.8-7.9.1-.2-.3-.3-.4-.1-1.1 2.8-2.7 5.4-4.6 7.8-.1.1.1.3.2.2zm3.5 14.8c-.1.1 0 .2.1.2 2-1.7 3.7-3.8 5.2-6-1 1.8-2.2 3.5-3.7 5-.1.1 0 .3.2.2 1.9-1.4 3.2-3.3 4.2-5.4.1-.2-.1-.4-.3-.4 0-.1.1-.1.1-.2.1-.2-.2-.4-.3-.2-.6.9-1.3 1.7-1.9 2.5-.1-.1-.1-.1-.2 0-1.6 1.1-3 2.4-4.7 3.4-.2.2 0 .5.2.4 1.1-.5 2.2-1.2 3.1-2-.6.8-1.3 1.6-2 2.5zm4.6-.9c.1 0 .1-.1.1-.1.1-.1-.1-.3-.2-.2 0 .1-.1.1-.1.2-.1 0 0 .2.2.1zM86.6 44.4c-.8 2.3-1.3 4.8-1.2 7.3-.1 0-.2 0-.2.1-.2 2.6-.1 5.1.2 7.6-.1.8.1 1.6.1 2.3 0 .2.4.2.4 0v-.2c.1 0 .2-.1.2-.2-.1-.4-.1-.8-.1-1.2 0-.4 0-.9-.1-1.3 0 0 0-.1-.1-.1-.2-1.7-.3-3.4-.3-5.2 0 .2 0 .4.1.6 0 .2.3.1.3 0-.1-3.3.2-6.5 1.2-9.6 0-.3-.4-.4-.5-.1zm5.6-3.4c-1.4 2.7-2.2 5.6-2.2 8.6 0 .2.3.3.4 0 .4-2.9 1.1-5.7 2.3-8.4 0-.2-.4-.5-.5-.2zM84 53.3c-.2 2.8 0 5.8.7 8.5 0 .2.3.1.3 0-.3-2.8-.5-5.6-.6-8.5 0-.2-.3-.2-.4 0zm21.5.5c-.4 2.1-.6 4.2-1.1 6.2-.1.3.4.4.5.1.7-2 1.1-4.2 1-6.3 0-.1-.4-.2-.4 0zm1.6 2.9c-.5 1.1-.8 2.4-1.1 3.5-.1.3.3.4.4.1.4-1.1.9-2.3 1.1-3.5 0-.2-.3-.3-.4-.1zm8 .1c.3-1.3.5-2.7.8-4 0-.1-.1-.1-.1 0-.3 1.3-.5 2.7-.8 4-.1.1 0 .1.1 0zm4.4-2.2c-.9 2.9-2 5.6-3.9 8-.1.2.1.4.3.3 2.1-2.3 3.6-5 4.1-8.1 0-.3-.4-.4-.5-.2zm1.9 1.7c.1-.2-.3-.4-.4-.2-1.1 1.9-2 4.1-2.8 6.2-.1.2.3.4.4.2 1-2 2.1-4.1 2.8-6.2zm-52.5 1.1c-.1-1.8-.1-3.6.2-5.5 0-.2-.3-.3-.3-.1-.6 1.8-.8 3.8-.3 5.6 0 .3.4.3.4 0zm.1 5.2c-.8-2.9-1.2-5.9-1.3-8.9 0-.2-.4-.2-.4 0-.2 3.1.2 6.1 1.4 9 .1.1.4.1.3-.1zm-2.1-2c-.1-.3-.1-.5-.2-.8.1.2.1.3.2.5s.3 0 .3-.1c-.5-1.6-.9-3.1-1-4.8 0-.2-.3-.2-.3 0 0 .8.1 1.5.2 2.2-.1-.3-.2-.5-.3-.8-.1-.2-.3-.1-.2.1.3 1.3.6 2.6 1 3.8.1.1.3.1.3-.1zm-1.2 4c-.5-1.8-1-3.6-1.2-5.4 0-.2-.4-.2-.4 0 .2 1.9.5 3.8 1.3 5.6 0 .2.4 0 .3-.2zm.8 8.4c-1.9-3.2-3.3-6.3-4.1-10-.1-.2-.5-.2-.5.1.3 3.7 1.8 7.3 4.2 10.2.2.1.6-.1.4-.3zM64 74.5c-1.3-2.6-2.4-5.2-3.1-8.1-.1-.3-.5-.2-.4.1.5 2.9 1.5 5.7 3.2 8.2.1.1.4 0 .3-.2zm-4.9-2.7c-.1-.2-.5-.1-.4.2 1.3 3.5 3.6 7 6.8 8.9.2.1.4-.2.3-.3-2.8-2.6-5.1-5.3-6.7-8.8zm3.6 10.7c.2.2.5-.1.3-.3-1.8-2.3-3.5-4.5-4.9-7.2-.1-.2-.5-.1-.4.2 1.1 2.8 2.7 5.4 5 7.3zm10.2-18.7c-1.9-4.3-2.7-8.3-1.9-13 0-.3-.3-.4-.4-.1-1.3 4.4-.8 9.6 1.8 13.4.3.3.7 0 .5-.3zM135 78.2c2.6-2.5 4.1-5.9 4.9-9.4.1-.2-.3-.3-.3-.1-1 3.5-2.7 6.4-4.8 9.3-.2.1.1.3.2.2zm3.6 5.1c1.5-1.4 2.5-3.2 3.2-5.2.1-.3-.4-.4-.5-.1-.7 1.8-1.8 3.5-3 5-.1.2.1.5.3.3zm-1.6 8.5c-.1.1 0 .4.2.3 2.1-1.4 3.6-3.6 4.8-5.8.1-.2-.2-.5-.4-.2-1.2 2.2-2.8 4-4.6 5.7zm2.6 2.5c-.9 1.3-1.9 2.4-2.9 3.7-.1.2.1.3.3.2 1.2-.9 2.1-2.4 2.8-3.8.2-.1 0-.2-.2-.1zm-9.4-28.2c1.9-2.2 3.2-4.8 3.9-7.6.1-.2-.2-.3-.3-.1-1 2.6-2.3 5.1-3.9 7.5-.1.2.2.3.3.2zm-44.5-24c-1 1.3-1.7 2.7-2 4.3 0 .2.2.2.2.1.6-1.5 1.3-2.9 2.1-4.2.2-.2-.1-.4-.3-.2zm-7.1 8c.7-2.3 1.7-4.4 2.9-6.5.1-.2-.2-.5-.4-.3-1.6 1.9-2.6 4.2-2.9 6.6 0 .3.3.4.4.2zm-2.3-1.9c.2-.5.2-1.1.3-1.6 0-.1-.2-.2-.2-.1-.1.5-.2 1.1-.3 1.6 0 .1.2.2.2.1zm6.7-1.9c.5-1.2.8-2.4 1.2-3.7.1-.2-.2-.3-.3-.1-.4 1.2-.8 2.4-1.1 3.6-.1.2.1.3.2.2zm1.4 2.5c.5-1.3.9-2.7 1.5-4 .5-1.2 1.2-2.2 1.8-3.4.1-.2-.2-.4-.3-.3-1.8 1.9-3 4.9-3.4 7.5 0 .3.3.4.4.2zm3.4-3.1c.6-1.6 1.1-3.1 2-4.5.1-.2-.2-.4-.3-.2-1 1.3-1.8 2.9-2.1 4.6.1.3.4.3.4.1zm4.4 2.5c.4-2.1.9-4.2 1.6-6.2.1-.3-.3-.4-.4-.1-.8 2-1.4 4.1-1.5 6.3 0 .1.3.2.3 0zm3.7-8.1c-1.3 2.5-2.1 5.5-1.9 8.4 0 .2.3.3.3 0 .4-2.9.9-5.5 1.8-8.3.1-.2-.1-.3-.2-.1zm.8.9c-.5 2.3-.9 4.6-.9 7 0 .2.3.2.3 0 .2-2.3.4-4.6.8-6.9.1-.2-.2-.3-.2-.1zm2.1-1.3c-.2 1.8-.4 3.6-.3 5.4 0 .2.3.2.3 0 .3-1.8.3-3.6.3-5.4-.1-.2-.3-.2-.3 0zm.5 2.3c-.1 1-.2 2-.2 3 0 .2.3.2.3 0 .2-1 .1-2.1.2-3.1 0-.1-.3-.1-.3.1zm2.7 0c0 .4 0 .9.1 1.3 0 .1.2.1.2 0 .1-.4.1-.9.1-1.3-.1-.2-.4-.2-.4 0zm3.5.9c-.1-.6-.2-1.2-.4-1.8 0-.2-.3-.1-.3.1.1.6.2 1.2.4 1.7.1.1.3.1.3 0zm1.4 1.1c.2-.8 0-1.9-.2-2.7 0-.2-.3-.1-.3 0 .1.9 0 1.8.1 2.7 0 .2.3.2.4 0zm.5-2.5c.2.7.3 1.4.4 2.2 0 .1.2.1.2 0 .1-.8-.1-1.5-.3-2.2-.1-.3-.4-.2-.3 0zm2 1.6c0-.6-.2-1.2-.5-1.8-.1-.1-.2 0-.2.1.2.6.3 1.1.4 1.8.1 0 .3 0 .3-.1zm4.1 1.6c-.1-1-.4-2-.7-3 0-.1-.2-.1-.2.1.2 1 .2 2 .6 2.9 0 .2.3.2.3 0zm1 1c.2-1.1-.1-2.2-.4-3.3-.1-.2-.4-.2-.4 0 .1 1.1.2 2.2.4 3.2.1.3.4.3.4.1zm1.3-.6c.1-.8-.1-1.7-.3-2.4-.1-.2-.4-.1-.3.1.2.8.2 1.5.4 2.3-.1.1.1.2.2 0zm1.2 1.3c0-1-.2-2.2-.3-3.2 0-.2-.4-.2-.3 0 .1 1.1.1 2.2.3 3.2.1.2.3.1.3 0zm.5 3.5c0 .2.3.3.4 0 .6-2.2.3-4.5-.2-6.7-.1-.2-.4-.1-.4.1.4 2.2.2 4.4.2 6.6zm3.4-.3c.3-1.7.1-3.5-.2-5.2 0-.2-.3-.2-.3 0 .1 1.7 0 3.4.1 5.1.1.3.4.4.4.1zm2.1 1.5c.5-1.4.4-3.3.4-4.8 0-.2-.3-.2-.4 0-.2 1.5-.7 3.3-.3 4.8.1.1.3.1.3 0zm1.4.4c.4-1.2.3-2.5.5-3.7 0-.2-.3-.2-.3 0-.2 1.2-.6 2.5-.5 3.7 0 .2.2.2.3 0zm1.9-.6c0-.5-.1-1-.2-1.5 0-.1-.1-.1-.1 0 .1.5.1 1 .3 1.5-.1.1 0 .1 0 0zm1.2 1.8c.3-1 .2-2.1.2-3.1 0-.2-.4-.2-.4 0 .1 1-.1 2-.1 3-.1.2.2.3.3.1zm.6 1.3c.6-1 .8-2.4.8-3.5 0-.3-.4-.3-.4 0-.1 1.2-.4 2.3-.7 3.5 0 0 .3.1.3 0zm1.3 1c.3-.7.4-1.6.5-2.3 0-.2-.3-.3-.3-.1-.2.8-.4 1.6-.5 2.4 0 .1.2.1.3 0zm1.6 1.4.3-.6c0-.1-.1-.1-.1-.1-.1.3-.2.5-.2.7-.1.1-.1.1 0 0z" fill="#1b141c" stroke-width="none" opacity="1"></path><path id="SvgjsPath10844" d="M115.6 53.8c.3-.7.3-1.5.5-2.2 0-.1-.1-.1-.1 0-.2.7-.4 1.5-.5 2.2h.1zm.5.8c1-2.5 1.2-5.2 1.3-7.9 0-.2-.2-.2-.2 0-.3 2.6-1 5.2-1.4 7.8-.1.3.2.3.3.1zm2.2-.5c.4-.7.4-1.5.5-2.2.2-.9.3-1.8.4-2.6 0-.3-.4-.4-.4-.1-.2.9-.4 1.8-.6 2.8-.1.7-.4 1.4-.3 2.2.1 0 .3 0 .4-.1zm1.1.1c.7-1.2.8-2.9 1.1-4.2.1-.3-.4-.5-.5-.1-.3 1.3-1 2.9-1 4.3-.1.1.2.2.4 0zm1.1-1.3c.2-.7.4-1.5.6-2.3.1-.2-.3-.3-.3-.1-.2.8-.3 1.6-.4 2.3-.1.2 0 .2.1.1zm.5 3.3c.7-1.4 1-3.1 1.4-4.6.1-.3-.4-.5-.5-.2-.5 1.5-1 3.1-1.2 4.7 0 .1.3.2.3.1zm1.2 0c.9-1.4 1.5-3.2 2.1-4.7.1-.2-.2-.4-.3-.2-.8 1.5-1.8 3.1-2.3 4.7-.1.3.3.4.5.2zm.7.5c-.1.2.2.2.2.1.7-1 1.1-2.2 1.4-3.4.1-.2-.2-.2-.3-.1-.3 1.2-.8 2.3-1.3 3.4zm1.4.7c.3-1 .6-2 .9-2.9.1-.2-.3-.3-.3-.1-.3 1-.5 2-.7 3 0 .1.1.1.1 0zm.1 3.3c1.3-2.3 2-5.3 2.5-7.9 0-.2-.3-.3-.3-.1-.6 2.7-1.7 5.2-2.5 7.8-.1.3.2.4.3.2zm1.4.4c.7-1.8 1.1-3.8 1.6-5.7.1-.3-.3-.4-.4-.1-.6 1.9-1.2 3.8-1.5 5.7-.1.2.2.3.3.1zm.7 1.2c.8-2 1.2-4.2 1.7-6.2.1-.2-.2-.3-.3-.1-.6 2-1.4 4.1-1.8 6.2-.1.3.3.4.4.1zm1 1.1c.9-2 1.4-4.3 2-6.5.1-.3-.4-.4-.4-.1-.6 2.1-1.5 4.3-1.8 6.5-.1.2.2.3.2.1zm2 1.2c.1-.1 0-.2-.1-.3 1.2-2.5 2.1-5.2 2.5-8 0-.2-.3-.4-.4-.1-.7 2.8-1.6 5.6-2.5 8.4-1.3 1.3-2.4 2.6-4 3.6-.3.2 0 .7.3.5 1.6-1.1 3.3-2.4 4.2-4.1zm.5 2.1c.2-.3.4-.6.6-1-.2.5-.4 1-.5 1.5-.1.3.3.5.5.2 1.1-1.7 1.9-3.9 2.7-5.8.2-.3-.4-.7-.5-.3-.4.9-.9 1.8-1.4 2.7.6-1.4.9-3 1.2-4.4.1-.3-.4-.4-.4-.1-.6 2.5-1.8 4.6-2.6 7-.2.3.2.4.4.2zm.7 2.3c.1.1.2.1.3-.1 1.4-1.9 2.3-4.4 3.2-6.6.1-.2-.3-.4-.4-.2-.9 2-2 3.9-2.9 5.9-1.1 1.1-2.1 2.3-3.2 3.4-.2.2.1.5.3.3 1-.7 2-1.6 2.7-2.7zm1 .9c-.1.2.3.4.4.2.6-.8.9-1.8 1.3-2.8.4-.9.9-1.8 1.3-2.8.1-.3-.3-.5-.4-.2-.5 1-1 1.9-1.4 2.9-.4.9-1 1.8-1.2 2.7zm-18-14.7c.6-2.6 1-5.2 1.4-7.8.1-.3-.4-.5-.5-.1-.7 2.6-1.3 5.2-1.4 7.9 0 .2.4.2.5 0zm-4.4-8.9c-.7 4.1-1.1 8.4-1.5 12.6 0 .2.3.2.3 0 .9-4 1.6-8.4 1.6-12.6-.1-.2-.4-.2-.4 0zm-2.1 1.8c-.2 3.8-.3 7.7-.8 11.5 0 .2.2.2.3 0 .7-3.8 1.1-7.7.9-11.5 0-.3-.4-.3-.4 0zm-1.8 1c.3-1 .2-.5.4-1.5 0-.2-.3-.2-.3 0-1.2 3.7-2.2 7.9-2.3 11.7 0 .2.3.2.3 0 .5-1.9.8-3.9 1.1-5.8.2-.9.4-1.8.5-2.7.1-.2.2-1.1.3-1.7zm-2.5.1c-.4 2.7-.8 5.4-.7 8.1-.1 0-.2 0-.3.2-.4 1-.5 2.2-.7 3.3-.1.4.6.6.7.2.2-1.1.5-2.3.4-3.4.1 0 .2 0 .2-.2.4-2.7.5-5.5.8-8.2.1-.2-.4-.2-.4 0zm-1.4-1.8c-.4 3-.9 6.1-1.1 9.2v-.4c0-.2-.3-.2-.4 0-.2 1.7-.3 3.4-.4 5.1 0 .2.3.2.3 0 .2-1.2.4-2.4.5-3.6.1.1.3.1.3-.1.6-3.4.8-6.8 1.2-10.2 0-.2-.4-.3-.4 0zm-3.3-.9c-.4 3.8-.9 7.7-.9 11.5 0 .2.3.2.3 0 .7-3.8.8-7.7 1.1-11.5 0-.3-.5-.3-.5 0zm-2.5 2.4c-.3 3.1-.5 6.5.2 9.6 0 .2.3.1.3 0 .2-3.2-.2-6.4.1-9.6-.1-.4-.6-.4-.6 0zm-1.5-.8c0-.2-.3-.2-.3 0-.3 3.6-.5 7.4.1 11 0 .2.3.1.3 0 0-3.7-.3-7.3-.1-11zm-2.1.3c.1 3.7.2 7.3.6 10.9 0 .2.4.2.4 0 0-3.7-.3-7.3-.5-10.9-.1-.3-.6-.4-.5 0zm-3 1.1c-.4 2.8-.8 5.7-.6 8.6 0 .2.3.2.3 0 .4-2.8.5-5.7.7-8.5 0-.3-.4-.3-.4-.1zM87 51.2c-.2 2.7-.3 5.4.2 8 0 .2.3.1.3 0 .1-2.7-.2-5.3-.2-8 .1-.2-.3-.2-.3 0zm-1.6-.1c0 2.8 0 5.7.5 8.4.1.3.5.2.5-.1.1-2.8-.3-5.6-.5-8.4 0-.3-.5-.3-.5.1zm-.7 6.7c-.3-2.4-.8-4.8-.9-7.2 0-.3-.5-.3-.5 0 .1 2.8.1 5.8.9 8.6.1.2.3.2.4.2.1 1.2.3 2.4.6 3.5 0 .2.4.2.4 0-.2-1.7-.4-3.3-.8-4.9 0-.2-.1-.2-.1-.2zm-1.4-.2c0-.2-.4-.3-.4-.1-.1.6-.2 1.1-.2 1.7-.5-2.2-1.1-4.3-1.4-6.6 0-.2-.4-.2-.4.1.3 2.8.7 5.7 1.8 8.3 0 .1.1.1.2.1.1.4.2.7.3 1.1.1.4.7.2.6-.2-.5-1.4-.6-2.9-.5-4.4zm-6-.5c.3 1.5.7 3.1 1.3 4.5.1.2.4.1.4-.2-.3-1.5-.8-3-1.2-4.5 0-.3-.5-.2-.5.2zm-2.8-.1c.4 2.6 1.1 5.2 2.6 7.4.1.2.5.1.4-.2-1-2.5-1.9-4.8-2.3-7.4-.1-.4-.7-.3-.7.2zm-1.6.9c.5 2.6 1.2 5.2 2.7 7.5.1.2.4.1.3-.1-.9-2.5-1.9-4.9-2.6-7.5 0-.3-.4-.2-.4.1zm-1.4 10.3c0-.2-.1-.2-.1-.3-.8-2.1-1.7-4.1-2.2-6.3-.1-.3-.5-.2-.5.1.5 2.2 1.1 4.5 2.2 6.4.2 1.1.5 2.2 1.1 3.1.2.3.5 0 .4-.2-.3-.9-.6-1.9-.9-2.8zm-4-5.2c1 2.8 2 5.7 3.6 8.2.1.1.3.1.3-.1-1-2.8-2.3-5.5-3.4-8.2-.2-.3-.6-.2-.5.1zm-.5 3c.6 2.3 1.2 4.7 2.8 6.6.2.2.5 0 .4-.2-.9-2.2-2.1-4.2-2.8-6.5-.1-.3-.5-.2-.4.1zm1.7 7.3c.1.1.1.2.2.2.1.2.3 0 .3-.2-.8-1.7-1.7-3.4-2.2-5.2-.1-.3-.5-.2-.4.1.4 1.5.9 2.9 1.6 4.2-.1 0-.2.1-.2.2.1 1.1.7 2.2 1.1 3.2.2.4.7.1.6-.3-.5-.7-.7-1.5-1-2.2zm-2.4.6c0-.1-.1-.1-.1-.1-.5-.9-1-1.7-1.4-2.6-.1-.3-.5 0-.4.2.7 1.5 1.3 3.1 2.2 4.4.3.7.7 1.4 1 2 .1.2.5 0 .4-.2-.6-1.2-1-2.5-1.7-3.7zm-.2 4.7c.2.2.5 0 .4-.3-1.2-1.8-2.5-3.4-3.3-5.4-.1-.2-.4-.1-.3.1.6 2 1.5 4.3 3.2 5.6zm-.2 2c-.1-.2-.2-.4-.4-.7 0 0 .1 0 .1.1.2.2.5-.2.3-.4-1.2-1.4-2.4-2.6-3.1-4.2-.1-.2-.5-.1-.4.2.5 1.4 1.3 2.8 2.4 3.8 0 .1-.1.1 0 .2.2 1 1 1.9 1.7 2.7.2.2.5-.1.3-.3-.3-.5-.6-.9-.9-1.4zm-1.1 1.1c.2.1.4-.2.2-.3-1.2-1.4-2.4-2.6-3.2-4.3-.1-.2-.5-.1-.4.2.8 1.6 1.8 3.5 3.4 4.4zm-1-.4c-.1-.2-.3-.1-.3.1.1.4.3.8.5 1.2 0-.1-.1-.1-.1-.2-.4-.5-.8-1.1-1.2-1.7-.2-.2-.5 0-.4.2.7 1 1.4 2.2 2.4 2.9h.1c.2.2.3.5.5.7.1.2.4-.1.3-.2-.7-.9-1.3-1.9-1.8-3zm.7 5c-.1-.3-.1-.6-.2-.8.1 0 .1.1.1.1.1.1.2-.1.2-.2-.2-.3-.4-.6-.6-.8-.3-.8-.6-1.5-1-2.2-.1-.2-.5-.1-.4.2 0 .1 0 .2.1.3-.1 0-.3.1-.2.3.2.3.3.6.5.9.3 1 .6 2 1.1 2.9.2.3.6.1.5-.2 0-.2 0-.4-.1-.5zm-1.1.1c.1.6.4 1.1.8 1.5 0 0 .1 0 .1-.1-.4-.4-.7-.8-.9-1.4.1-.1 0 0 0 0zm49-29.9c-.4 1.5-.8 2.8-1.5 4.2-.2.3.3.6.5.3.8-1.2 1.5-2.9 1.5-4.4 0-.3-.4-.3-.5-.1zm1.2 1.4c-.7 1-1.1 2.3-1.5 3.5-.1.2.3.4.4.2.5-1.1 1.1-2.3 1.4-3.5.1-.3-.2-.4-.3-.2zm3.2-.8c-1 1.4-1.9 2.8-2.8 4.3-.1.2.2.4.3.2 1-1.4 2-2.8 2.8-4.3 0-.2-.2-.3-.3-.2zm1 .9c-1.1 1.2-1.9 2.8-2.6 4.3-.1.3.2.5.4.2.8-1.5 1.8-2.8 2.5-4.3.1-.2-.1-.4-.3-.2zm1.5.3c-1 1.3-1.8 2.8-2.7 4.2-.1.2.1.3.3.2 1.1-1.3 2.2-2.7 2.8-4.2 0-.2-.3-.3-.4-.2zm3.2.4c.1-.2-.1-.4-.3-.2-1.2 1.4-2.2 3-3.5 4.3-.2.2.1.5.3.3 1.3-1.3 2.7-2.8 3.5-4.4zm1.1.6c-1.4 1.8-2.7 3.7-4.1 5.5-.1.2.2.4.3.2 1.6-1.6 3.1-3.5 4.1-5.5.1-.1-.1-.3-.3-.2zm1 1.3c-1.2 1.7-2.3 3.5-3.5 5.1-.2.2.2.5.4.3 1.4-1.6 2.7-3.3 3.5-5.3.1-.2-.2-.3-.4-.1zm.5 1.7c-.9 1.1-1.6 2.5-2.6 3.6-.2.2.1.6.4.4 1-1.1 2.1-2.3 2.6-3.8.1-.2-.2-.4-.4-.2zm1.4.9c-1.1 1.1-2 2.3-2.8 3.7-.2.2.2.4.4.2.9-1.2 1.9-2.4 2.8-3.7 0-.1-.3-.3-.4-.2zm3.1 4.5c.1-.3-.2-.5-.4-.3-.5.4-.9 1-1.3 1.5s-.8 1-1.3 1.5c-.2.3.1.6.4.4.5-.5 1-1 1.4-1.6.5-.4.9-.9 1.2-1.5zm1.2 2.2c-.8.7-1.4 1.5-2.1 2.2-.2.2.1.6.3.3.6-.8 1.4-1.5 2-2.3.3-.2 0-.4-.2-.2zm2.2 1.6c.1-.1-.1-.3-.2-.2-1 .9-1.9 1.9-2.9 2.9-.1.2.1.4.2.2 1-.9 2-1.8 2.9-2.9zm.7 1.6c-1.2 1.2-2.3 2.6-3.3 4-.1.2.2.4.3.3 1.2-1.3 2.3-2.6 3.2-4 .2-.3-.1-.5-.2-.3zm.8.5c-1.2 1.8-2.3 3.8-3.3 5.6-.1.2.2.4.3.2 1.4-1.6 2.7-3.7 3.5-5.7 0-.1-.4-.3-.5-.1zm2.3.1c-1.4 2.2-2.6 4.4-4.1 6.4-.2.2.1.6.3.3 1.7-2 3.3-4.2 4.1-6.6.1-.2-.2-.3-.3-.1zm.1 3.3c.1-.2-.2-.4-.4-.2-1.4 2-2.4 4.2-3.3 6.5-.1.2.2.3.4.2 1.1-2.2 2.4-4.3 3.3-6.5zm.3 1.4c-1.3 2.3-2.4 4.8-3.7 7.1-.1.2.2.4.4.2 1.4-2.3 2.8-4.6 3.6-7.2.1-.1-.2-.3-.3-.1zm.7 1.8c-1.1 2.2-2.1 4.5-3.2 6.8-.1.2.2.4.4.2 1.2-2.2 2.4-4.4 3.2-6.8-.1-.3-.3-.4-.4-.2zm.6 2.2c-1.1 2.3-2.1 4.6-3.2 6.9-.1.2.1.3.2.1 1.4-2.1 2.6-4.5 3.3-6.9.1-.2-.2-.3-.3-.1zm0 3c-1.1 1.9-1.9 4.2-2.7 6.2-.1.2.3.4.4.2 1-2 2.1-4.1 2.8-6.2.1-.3-.3-.5-.5-.2zm.9 1.4c-1.2 2.3-2.1 4.8-2.9 7.2-.1.3.3.4.4.2 1.1-2.3 2.2-4.8 2.9-7.2.1-.2-.3-.4-.4-.2zm.2 4.3c-.4 1.8-.9 3.4-1.7 5.1-.1.3.3.5.4.2.8-1.7 1.5-3.4 1.6-5.3 0-.2-.3-.2-.3 0zm-67.1-27c.1 1.7.7 3.2 1.4 4.7.1.2.5.1.4-.2-.5-1.5-.9-3.1-1.4-4.6-.1-.1-.4-.1-.4.1zm-.8 1c.3 1.7.8 3.3 1.3 5 .1.3.5.2.4-.1-.4-1.7-.7-3.4-1.3-5-.2-.3-.5-.2-.4.1zm-3.5 10c-.2-.5-.4-1.1-.7-1.6-.2-.2-.5-.1-.4.2.2 1.1 1 2.2 1.6 3.1.1.2.5 0 .3-.2-.3-.5-.6-1-.8-1.5zm-6.7 8.3c-.1-.2-.4-.1-.3.1.6 2.1 1.4 4.1 2.5 6 .2.3.7 0 .5-.3-.9-1.9-1.8-3.9-2.7-5.8zm.2 3.1c-.1-.2-.4-.1-.3.1.6 2 1.4 4 2.2 5.9.1.3.6.2.5-.1-.8-2-1.5-4-2.4-5.9zm-1.4 1.3c0-.1-.2 0-.2.1.8 2.2 1.7 4.3 3 6.3.1.2.5 0 .3-.2-1.1-2.1-2.2-4.1-3.1-6.2zm1.5 7.3c0-.4-.1-.8-.2-1.1 0-.1-.2-.1-.2 0v.2c-.3-.6-.5-1.1-.9-1.6-.1-.1-.3-.1-.3.1.3.9.7 1.7 1.2 2.5 0 .7.1 1.3.1 1.9 0 .3.5.3.4 0 0-.3 0-.7-.1-1 0 .1.1.2.1.2.1.2.4 0 .3-.2-.1-.2-.2-.6-.4-1zM81.3 61c-.3-2.9-.5-5.9-.9-8.8 0-.3-.4-.3-.5 0-.2 3.5.2 7.2 1 10.6.1.3.5.2.5 0 .1.1.3 0 .2-.2 0-.6-.1-1.1-.3-1.6zm9.5-6.4c0-.2-.4-.2-.4 0-.2 2-.1 4 0 6 0 .3.5.3.5 0 0-2 .1-4-.1-6zm-1.7 2c0 1.7.1 3.3 0 5 0 .2.4.2.4 0 0-1.7 0-3.3-.2-5 0-.1-.2-.2-.2 0zm-2.5 2c0 1.2.3 2.3.5 3.5 0 .2.4.1.3-.1-.2-1.1-.3-2.3-.6-3.4.1-.2-.2-.2-.2 0zm10-2.1c-.2 1.4-.2 2.8-.2 4.1 0 .2.3.2.4 0 .1-1.3.3-2.7.2-4.1-.1-.1-.4-.2-.4 0zm9.2-1.2c-.3 1.5-.6 3-1.1 4.4-.1.3.3.4.4.1.5-1.5.9-2.9.9-4.5.1-.1-.2-.1-.2 0zm4.4-.2c-.3 2-.7 3.9-1.1 5.8-.1.2.3.3.3.1.5-2 .8-3.9 1-5.9.1-.1-.2-.1-.2 0z" fill="#3a353a" stroke-width="none" opacity="1"></path></g><g id="svga-group-glasses-single-move" transform="matrix(1,0,0,1,0,0)"><g id="svga-group-glasses-single"></g></g></g></g></g><rect id="svga-credit-rect" width="200" height="15" x="0" y="185" fill="#ecf0f1" opacity="0.5" style="display: none;"></rect><text id="svga-credit-text" font-family="Avenir Next, Roboto, Helvetica, Arial, sans-serif" font-size="10px" text-anchor="start" font-weight="400" size="10px" anchor="start" weight="400" fill="#333333" x="33.311859130859375" y="182.7113401889801" style="display: none;"><tspan id="SvgjsTspan5001" dy="13" x="33.311859130859375">Created on AvatarMaker.com</tspan></text></g><defs id="SvgjsDefs4953"></defs></svg>