<svg id="Layer_1" data-name="Layer 1" xmlns="http://www.w3.org/2000/svg" viewBox="0 0 432 180"><defs><style>.cls-1{fill:#6200b3;}.cls-2{fill:#ae0fbd;}.cls-3{fill:#fff;}.cls-4,.cls-5,.cls-6,.cls-9{fill:none;}.cls-4,.cls-5,.cls-6,.cls-7,.cls-8,.cls-9{stroke:#000;}.cls-4,.cls-5,.cls-6,.cls-7,.cls-8{stroke-miterlimit:10;}.cls-4{stroke-width:4px;}.cls-5,.cls-7{stroke-width:2px;}.cls-7{fill:#e9bcb5;}.cls-8{fill:#e6e6e6;stroke-width:3px;}.cls-9{stroke-linecap:round;stroke-linejoin:round;stroke-width:0.5px;}</style></defs><rect id="Background" class="cls-1" width="432" height="180"/><g id="Light_Pink_Pencil" data-name="Light Pink Pencil"><path class="cls-2" d="M130.84,117.21l221.62.77,0,46.74L130.68,164v0a57.72,57.72,0,0,1-6.9-.37,60.92,60.92,0,0,1-6.41-1.11l-1.88-.43c1.87-.65,3.62-3.09,3.82-6.79.23-4.46-2-7.65-4.17-8l0-.22c2.13-.26,4.2-2.67,4-6.3s-2.66-6.24-4.89-6.33V134c2.32-.12,4.69-3,4.61-7.58-.06-3.8-1.78-6.61-3.69-7.63l1.1-.24a58.89,58.89,0,0,1,6.42-1.06A57.62,57.62,0,0,1,130.84,117.21Z"/><path class="cls-3" d="M115.11,147l0,.22c2.2.35,4.4,3.54,4.17,8-.2,3.7-2,6.14-3.82,6.79-16-3.71-28.07-7.95-28.07-7.95-6.65-2.3-12.54-4.6-17.92-6.87l.21-14.51c4.87-1.9,10.24-3.84,16.54-6,0,0,12.52-4.28,28.9-7.92,1.91,1,3.63,3.83,3.69,7.63.08,4.58-2.29,7.46-4.61,7.58v.36c2.23.09,4.71,2.55,4.89,6.33S117.24,146.74,115.11,147Z"/><path d="M53,139.77c5.08,2.39,10.47,4.88,16.49,7.42v.66l-19.26-8,19.48-7.44v.29C63.64,135,58.35,137.33,53,139.77Z"/><path d="M69.71,132.68l-.21,14.51c-6-2.54-11.41-5-16.49-7.42C58.35,137.33,63.64,135,69.71,132.68Z"/><path class="cls-4" d="M69.71,132.68c4.87-1.9,10.24-3.84,16.54-6,0,0,12.52-4.28,28.9-7.92l1.1-.24a58.89,58.89,0,0,1,6.42-1.06,57.62,57.62,0,0,1,8.17-.29l.34,0"/><path class="cls-4" d="M132.29,163.89l-1.61,0a57.72,57.72,0,0,1-6.9-.37,60.92,60.92,0,0,1-6.41-1.11l-1.88-.43c-16-3.71-28.07-7.95-28.07-7.95-6.65-2.3-12.54-4.6-17.92-6.87"/><path class="cls-5" d="M114.09,134h.14c2.32-.12,4.69-3,4.61-7.58-.06-3.8-1.78-6.61-3.69-7.63a3.61,3.61,0,0,0-1.3-.4"/><path class="cls-5" d="M114.33,162.18a2.92,2.92,0,0,0,1.16-.17c1.87-.65,3.62-3.09,3.82-6.79.23-4.46-2-7.65-4.17-8"/><path class="cls-5" d="M114.84,147l.27,0c2.13-.26,4.2-2.67,4-6.3s-2.66-6.24-4.89-6.33"/><polygon class="cls-6" points="69.5 147.19 69.5 147.85 50.24 139.83 69.72 132.39 69.71 132.68 69.5 147.19"/><line class="cls-5" x1="118.85" y1="130.54" x2="352.46" y2="130.54"/><line class="cls-5" x1="119.38" y1="152.4" x2="353" y2="152.4"/><rect class="cls-7" x="348.88" y="117.43" width="32.32" height="47.54" rx="16.16" transform="translate(730.08 282.4) rotate(180)"/><rect class="cls-8" x="340.37" y="117.5" width="22.17" height="47.47" transform="translate(702.91 282.47) rotate(-180)"/><line class="cls-5" x1="348.87" y1="117.5" x2="348.87" y2="164.17"/><polygon class="cls-9" points="50 139.97 69.37 148.11 69.37 131.83 50 139.97"/><line class="cls-5" x1="353.29" y1="118.22" x2="353.29" y2="164.82"/></g><path class="cls-3" d="M60,74.82c0,1.47-.06,3.13-.17,5a15.68,15.68,0,0,1-1.44,5.57,26.28,26.28,0,0,1-1.79,3,13,13,0,0,1-3.14,3,19.07,19.07,0,0,1-2.26,1.45,13.24,13.24,0,0,1-2.67,1.1h.08a10.23,10.23,0,0,1-3.14.56c-1.42.08-3.26.12-5.53.12-.85,0-2,0-3.53,0s-2.82-.07-4-.13l.17-5.35c.34,0,.78,0,1.32,0l1.61.09c.54,0,1,0,1.53,0H38.3q9,0,11.22-1.7a10.54,10.54,0,0,0,3.57-4.25A19.7,19.7,0,0,0,54,79.37a36.3,36.3,0,0,0,.26-4.55V30.62H60Z"/><path class="cls-3" d="M130.35,65a32.57,32.57,0,0,1-3.65,11.48,34.42,34.42,0,0,1-7.36,9.35A34.8,34.8,0,0,1,109.1,92.2a32.5,32.5,0,0,1-12.32,2.34,33.25,33.25,0,0,1-12.71-2.42A32.35,32.35,0,0,1,73.7,85.36a31.33,31.33,0,0,1-7-10.29,32.63,32.63,0,0,1-2.55-13,32.72,32.72,0,0,1,2.55-13,31.39,31.39,0,0,1,7-10.28A32.35,32.35,0,0,1,84.07,32,33.25,33.25,0,0,1,96.78,29.6a31.78,31.78,0,0,1,8.58,1.19,35.48,35.48,0,0,1,8.16,3.44,37.21,37.21,0,0,1,7.31,5.53,36.06,36.06,0,0,1,5.87,7.35h-6.55a32.93,32.93,0,0,0-10.54-9A27.94,27.94,0,0,0,86.24,37a26.12,26.12,0,0,0-8.59,5.7,26.65,26.65,0,0,0-5.74,8.58,27.47,27.47,0,0,0-2.08,10.8,27.38,27.38,0,0,0,2.08,10.79,26.7,26.7,0,0,0,5.74,8.59,26.09,26.09,0,0,0,8.59,5.69,27.27,27.27,0,0,0,10.54,2,28.64,28.64,0,0,0,9.43-1.53,29.1,29.1,0,0,0,7.91-4.12,27.27,27.27,0,0,0,5.9-6,23.35,23.35,0,0,0,3.53-7.1H74.68V65Z"/><path class="cls-3" d="M208.89,62.07a37.94,37.94,0,0,1-2.17,13.26,26.38,26.38,0,0,1-6.29,9.9,27.34,27.34,0,0,1-10,6.16,38.67,38.67,0,0,1-13.26,2.13H158.65V30.62h18.53a38.91,38.91,0,0,1,13.26,2.12,27.36,27.36,0,0,1,10,6.17,26.38,26.38,0,0,1,6.29,9.9A37.94,37.94,0,0,1,208.89,62.07Zm-5.7.17a32.7,32.7,0,0,0-1.74-11,21.7,21.7,0,0,0-5.1-8.24,22.33,22.33,0,0,0-8.2-5.15,31.6,31.6,0,0,0-11-1.78H164.35v52h12.83a32,32,0,0,0,10.88-1.74,21.38,21.38,0,0,0,13.35-13.18A31.19,31.19,0,0,0,203.19,62.24Z"/><path class="cls-3" d="M260.06,72.78H218.41a16.69,16.69,0,0,0,2.25,7.48,18.35,18.35,0,0,0,4.55,5.14,19.18,19.18,0,0,0,5.65,3,18.63,18.63,0,0,0,5.74,1,17.91,17.91,0,0,0,9.86-2.84,19.44,19.44,0,0,0,7-8.21h5.86A29.92,29.92,0,0,1,255,85.53a25.19,25.19,0,0,1-5.52,5.06,23.6,23.6,0,0,1-13,4,24,24,0,0,1-9.43-1.83,23.24,23.24,0,0,1-7.48-5,22.75,22.75,0,0,1-4.93-7.44,24.82,24.82,0,0,1,0-18.61,23.27,23.27,0,0,1,5-7.48,22.66,22.66,0,0,1,7.52-5,25.09,25.09,0,0,1,18-.21,22.92,22.92,0,0,1,7.39,4.51,22.38,22.38,0,0,1,5.23,7.14,24.47,24.47,0,0,1,2.25,9.39Zm-5.53-5.19a15.3,15.3,0,0,0-2-5.86,18.41,18.41,0,0,0-4-4.76,19.1,19.1,0,0,0-5.4-3.19,17,17,0,0,0-6.12-1.15,19,19,0,0,0-6.59,1.15,18.75,18.75,0,0,0-5.52,3.15,18.43,18.43,0,0,0-4.08,4.71,16.14,16.14,0,0,0-2.17,6Z"/><path class="cls-3" d="M292.19,81.11a12.88,12.88,0,0,1-1.07,5.23,13.3,13.3,0,0,1-2.93,4.25,14.08,14.08,0,0,1-9.86,4,15.65,15.65,0,0,1-5.4-.94,14.82,14.82,0,0,1-4.63-2.67,12.7,12.7,0,0,1-3.23-4.25,12.91,12.91,0,0,1-1.19-5.57V78.73h5.36q0,5.1,2.59,7.86a8.54,8.54,0,0,0,6.5,2.76,8,8,0,0,0,6.21-2.5A8.39,8.39,0,0,0,286.83,81v-.25a7.26,7.26,0,0,0-2.42-5.48,17.2,17.2,0,0,0-6.5-3.11,34.21,34.21,0,0,1-4.81-1.48,15.31,15.31,0,0,1-4-2.3,9.7,9.7,0,0,1-2.72-3.48,11.89,11.89,0,0,1-1-5.06,13.79,13.79,0,0,1,.85-4.85,10.85,10.85,0,0,1,2.51-3.95,12.13,12.13,0,0,1,4-2.63,14.24,14.24,0,0,1,5.52-1,13.57,13.57,0,0,1,4.93.89,10.35,10.35,0,0,1,4,2.81A14.26,14.26,0,0,1,290,56a21.75,21.75,0,0,1,1,7.1h-5.36q0-5.36-2.21-7.91a6.59,6.59,0,0,0-5.1-2.55q-3.82,0-5.69,2.13a7.44,7.44,0,0,0-1.87,5.1,5.73,5.73,0,0,0,2.16,4.55A18.72,18.72,0,0,0,278.76,67c1.47.39,3,.85,4.5,1.36a14.49,14.49,0,0,1,4.21,2.21,12.13,12.13,0,0,1,3.23,3.78,13.66,13.66,0,0,1,1.49,6.08Z"/><path class="cls-3" d="M295.67,42.26V31.89H301V42.26Zm0,51.26v-45H301V93.52Z"/><path class="cls-3" d="M351.6,87.31a26.57,26.57,0,0,1-1.19,8.29,21.75,21.75,0,0,1-3.19,6.29,20.72,20.72,0,0,1-4.46,4.46,28.71,28.71,0,0,1-5,2.94,23,23,0,0,1-4.93,1.61,21.89,21.89,0,0,1-4.08.47,22.74,22.74,0,0,1-6.72-1.06,25.13,25.13,0,0,1-6.46-3.11,27.5,27.5,0,0,1-5.61-5,27.09,27.09,0,0,1-4.25-6.89h5.95l.68,1.45c.51.79,1.12,1.67,1.83,2.63A12.42,12.42,0,0,0,317,102.1a17.09,17.09,0,0,0,5.73,3.15,19.27,19.27,0,0,0,5.66.93,17.2,17.2,0,0,0,6.58-1.31,18.12,18.12,0,0,0,5.66-3.7,18.35,18.35,0,0,0,5.52-13.43l-.08-1.11q-6.21,7.91-17.94,7.91a24.14,24.14,0,0,1-10-2,23.11,23.11,0,0,1-7.48-5.27A22.6,22.6,0,0,1,306,79.75,24.41,24.41,0,0,1,304.34,71a22,22,0,0,1,2-9,27.28,27.28,0,0,1,5.44-8,26.41,26.41,0,0,1,8.16-5.65,24.38,24.38,0,0,1,10.16-2.13,43,43,0,0,1,7.48.64A54.13,54.13,0,0,1,344,48.34a25.36,25.36,0,0,1,4.81,2,14.11,14.11,0,0,1,2.8,1.95Zm-5.44-32a34.29,34.29,0,0,0-8-3,33.07,33.07,0,0,0-6.84-.76A21.61,21.61,0,0,0,324,52.68a36.09,36.09,0,0,0-5.78,2.59h.08a18.33,18.33,0,0,0-6.5,7.31A19.33,19.33,0,0,0,309.7,71a19.72,19.72,0,0,0,1.14,6.51,17.59,17.59,0,0,0,3.49,5.9,18.09,18.09,0,0,0,5.82,4.3,19.09,19.09,0,0,0,8.25,1.65,17.47,17.47,0,0,0,7.22-1.48,17.67,17.67,0,0,0,5.7-4A18.71,18.71,0,0,0,345,78a20,20,0,0,0,1.41-7Z"/><path class="cls-3" d="M393.42,93.52V69.8a24.09,24.09,0,0,0-1.23-8.37,13.59,13.59,0,0,0-3.36-5.23,16.43,16.43,0,0,0-3.95-2.42A16.89,16.89,0,0,0,378,52.63l-15.38.09v40.8h-5.36l-.08-46.07h20.57c.79,0,1.74,0,2.85.13a20.86,20.86,0,0,1,3.52.59,25,25,0,0,1,3.91,1.36A18.76,18.76,0,0,1,392.14,52q6.72,5.68,6.72,17.76V93.52Z"/></svg>